<svg width="1806" height="2947" viewBox="0 0 1806 2947" fill="none" xmlns="http://www.w3.org/2000/svg">
<g id=" deciduous tree">
<path id="trunk" d="M1255.59 1745.68C1248.67 1748.68 1250.26 1758.33 1248.83 1764.49C1248.89 1769.96 1247.46 1775.19 1242.94 1778.59C1235.48 1786.6 1231.05 1797.87 1222 1804.05C1215.46 1804.63 1217.93 1811.95 1217.58 1816.16C1210.47 1828.71 1198.64 1837.91 1189.45 1848.94C1171.92 1867.22 1156.65 1887.4 1141.5 1907.63C1133.98 1917.57 1123.25 1926.02 1120.03 1938.46C1103.6 1964.59 1082.24 1987.33 1060.35 2008.95C1051.94 2017.28 1042.63 2024.66 1032.26 2030.31C1027.32 2035.25 1022.26 2040.12 1015.43 2042.42C1007.99 2045.28 1003.71 2052.65 995.817 2054.63C987.038 2058.47 977.447 2058.97 968.15 2060.23C960.995 2062.66 955.399 2068.54 947.376 2068.66C919.754 2073.42 891.268 2073.45 863.419 2071.52C852.69 2069.67 841.745 2066.95 832.832 2060.51C818.949 2056.99 807.243 2047.26 798.513 2036.17C796.649 2031.36 794.295 2026.56 789.476 2024.08C783.57 2018.17 787.471 2008.3 780.912 2002.61C768.606 1990.49 768.845 1972.09 766.85 1956.13C766.193 1934.8 765.283 1913.19 770.088 1892.37C778.06 1862.68 794.468 1836.17 804.19 1807.14C805.6 1803.04 806.513 1795 799.911 1796.34C781.908 1799.37 764.106 1811.68 759.942 1830.32C751.014 1858.82 736.26 1885.07 723.163 1911.76C704.489 1949.05 679.424 1983.43 647.294 2009.87C636.577 2018.5 623.733 2026.7 609.281 2023.8C594.977 2021.91 582.025 2014.63 571.752 2004.68C564.006 1999.32 555.336 1995.09 549.485 1987.4C544.559 1982.75 542.46 1976.31 538.962 1970.81C535.513 1967.02 533.42 1949.08 532.833 1943.25C530.847 1938.5 432.319 1832.39 429.173 1839.3C429.866 1848.47 515.605 1974.39 517.597 1983.37C520.2 1988.44 533.015 1988.7 534.767 1994.48C540.687 2003.92 537.571 2017.33 547.292 2024.52C551.644 2029.38 547.134 2036.24 549.813 2041.89C552.322 2053.82 563.925 2061.49 565.49 2073.67C569.814 2083.49 575.134 2092.95 577.518 2103.5C579.788 2106.88 584.082 2108.72 584.725 2113.35C586.002 2120.04 591.687 2124.2 594.753 2129.77C599.759 2144.57 601.003 2161.6 611.143 2174.08C614.109 2177.26 610.659 2182.7 611.231 2186.68C609.533 2194.62 613.567 2201.85 618.503 2207.67C623.164 2224.17 619.921 2241.72 621.714 2258.61C622.703 2281.85 628.97 2304.57 639.348 2325.33C643.655 2332.86 642.787 2341.82 646.379 2349.49C653.509 2360.85 651.433 2375.05 652.925 2387.8C653.605 2410.6 654.979 2433.61 657.179 2456.14C659.36 2501.27 659.961 2546.53 658.984 2591.73C657.996 2598.04 654.553 2603.81 654.119 2610.36C652.117 2623.45 650.143 2636.87 643.045 2648.34C635.324 2663.52 631.241 2680.5 622.173 2694.8C616.388 2700.75 616.714 2710.26 611.668 2716.87C606.01 2726.84 597.173 2735.13 594.931 2746.84C591.626 2756.71 592.421 2767.59 589.234 2777.33C580.221 2786.1 582.709 2801.2 572.639 2809.39C567.944 2813.91 569.324 2821.26 566.936 2826.44C559.083 2830.54 562.289 2841.18 556.584 2846.95C547.883 2856.9 543.842 2869.91 535.133 2879.79C529.214 2886.42 520.246 2890.24 515.151 2897.3C511.387 2897.72 504.564 2898.44 506.404 2904.08C511.009 2910.32 520.396 2907.4 527.05 2908.39C558.569 2909.37 590.664 2907.22 621.826 2910.94C626.496 2912.97 631.687 2915.43 636.71 2912.47C655.141 2905.79 675.172 2905.49 694.364 2902.22C748.233 2895.68 802.408 2887.23 856.244 2883.03C883.084 2880.79 909.166 2891.2 936.041 2888.54C942.83 2886.47 938.551 2878.38 934.629 2875.58C930.633 2870.4 923.531 2869.19 919.425 2864.49C912.168 2847.86 895.059 2838.74 885.897 2823.41C866.378 2802.45 852.464 2777.31 839.918 2751.49C835.024 2742.61 832.465 2732.71 828.312 2723.58C820.721 2715.42 818.563 2703.37 815.49 2693.14C812.685 2686.72 816.86 2678.74 811.353 2673.39C803.297 2660.68 801.581 2645.15 797.967 2630.99C792.871 2610.32 792.836 2588.84 788.148 2568.13C782.346 2549.01 780.555 2529.34 782.348 2509.53C783.216 2492.26 782.081 2474.61 783.425 2457.57C785.64 2452.83 793.314 2445.01 786.195 2440.84C781.105 2437.46 781.865 2429.3 783.795 2424.36C788.822 2422.27 789.815 2416.63 785.515 2413.15C780.451 2397.52 782.783 2380.36 783.563 2364.37C785.509 2338.77 791.009 2313.52 800.581 2289.67C806.989 2271.89 813.611 2254.06 824.093 2238.2C831.484 2224.08 840.384 2210.86 848.955 2197.48C849.998 2192.49 856.427 2193.61 859.021 2189.72C867.891 2182.9 874.179 2172.46 884.324 2167.55C890.698 2165.22 893.559 2158.16 899.88 2155.47C919.887 2142.96 939.934 2129.69 961.543 2119.85C967.16 2119.12 972.302 2116.77 976.124 2112.41C988.777 2102.73 1002.51 2093.68 1017.68 2088.6C1024.69 2088.74 1026.98 2080.52 1033.29 2078.76C1042.76 2074.57 1050.57 2067.42 1060.46 2064.1C1066.55 2061.37 1067.83 2051.05 1075.89 2052.85C1083.14 2052.76 1083 2043.55 1088.55 2040.61C1102.21 2030.11 1116.66 2020.58 1129.17 2008.61C1150.67 1989.23 1172.76 1969.07 1186.52 1943.21C1191.95 1928.33 1202.62 1916.4 1212.74 1904.59C1216.23 1896.16 1223.66 1889.8 1225.41 1880.59C1225.47 1877.03 1227.01 1874.34 1230.54 1873.41C1242.21 1863.16 1247.44 1847.72 1254.34 1834.2C1260.51 1821.27 1265.46 1807.37 1264.21 1792.81C1263.48 1778.18 1265.86 1762.74 1260.78 1748.72C1259.85 1746.78 1257.82 1745.27 1255.59 1745.68ZM516.202 2897.03C516.354 2896.44 516.204 2896.89 516.202 2897.03Z" fill="#9B7A45"/>
<path id="leaf2" d="M782.203 1374.32C762.903 1375.73 750.399 1393.13 739.386 1407.03C734.253 1412.93 730.923 1420.14 731.515 1428.11C729.311 1449.95 731.853 1472.46 725.193 1493.65C720.542 1503.62 716.53 1513.9 714.089 1524.61C710.245 1530.01 702.871 1533.87 703.081 1541.41C698.342 1553.05 690.797 1564.18 680.622 1571.69C658.89 1584.04 633.606 1589.16 608.625 1589.58C603.194 1590.59 593.141 1588.27 592.398 1596.13C593.977 1615.51 594.349 1637.48 581.327 1653.43C570.106 1666.05 555.705 1676.13 540.049 1682.45C526.526 1685.04 515.732 1695.3 508.13 1706.25C501.708 1719.9 504.219 1738.31 516.399 1748.06C543.115 1770.23 576.926 1786.39 612.35 1784.53C634.563 1784.12 659.277 1775.54 670.189 1754.82C675.478 1743.74 671.655 1730.65 676.308 1719.54C678.06 1715.79 682.075 1716.27 684.362 1719.08C699.398 1731.29 713.873 1744.56 725.34 1760.29C731.156 1772.35 745.906 1775.1 757.483 1778.79C776.116 1780.54 795.129 1779.97 813.65 1777.15C820.823 1775.94 829.131 1773.49 831.843 1765.99C835.086 1764.34 839.099 1763.29 841.334 1759.83C851.477 1747.93 856.803 1732.78 858.574 1717.4C859.541 1711.21 862.31 1704.72 867.843 1701.46C877.681 1710.78 884.653 1722.84 894.879 1731.91C918.071 1753.97 942.825 1776.66 973.779 1786.93C996.736 1794.67 1021.69 1790.33 1043.57 1781.25C1050.94 1779.19 1059.94 1774.24 1066.69 1780.43C1074.03 1787.19 1080.71 1795.14 1090.32 1798.89C1101.01 1803.86 1113.46 1801.4 1124.02 1805.99C1131.95 1814.05 1144.22 1808.63 1153.52 1806.53C1167.26 1801.61 1182.92 1797.1 1192.2 1785.06C1197.59 1778.29 1196.97 1765.06 1186.79 1763.42C1164.32 1759.68 1141.73 1751.72 1124.77 1735.91C1111.88 1722.3 1103.24 1704.71 1098.86 1686.56C1097.09 1668.58 1097.58 1649.85 1098.65 1632.34C1100.49 1622.68 1101.17 1612.08 1107.41 1604.09C1113.69 1599.77 1113.7 1590.99 1119.57 1586.13C1125.71 1580.39 1127.45 1572.18 1130.9 1564.94C1135.31 1557.93 1143.53 1551.64 1141.22 1542.3C1136.97 1526.5 1133.22 1510.32 1134.09 1493.66C1134.31 1476.05 1138.27 1458.51 1146.65 1442.84C1149.55 1438.09 1147 1431.53 1141.14 1431.17C1133.71 1426.55 1126.88 1419.39 1117.44 1419.63C1116 1414.63 1110.89 1410.34 1105.66 1413.32C1092.9 1418.74 1084.57 1431.77 1083.94 1445.5C1081.74 1460.68 1082.45 1476.64 1078.53 1491.37C1070.4 1488.16 1066.82 1478.74 1062.5 1471.69C1058.1 1462.68 1050 1455.98 1046.9 1446.3C1035.71 1429.87 1018.5 1418.37 1001.14 1409.26C989.327 1404.54 976.63 1403.07 965.203 1397.48C952.127 1391.1 935.84 1387.74 922.74 1395.96C906.102 1406.05 893.287 1421.2 879.006 1434.21C870.093 1442.89 861.282 1451.53 851.941 1459.79C846.798 1443.83 847.549 1425.21 835.513 1412.03C822.742 1396.95 808.835 1379.93 788.844 1374.85C786.66 1374.42 784.427 1374.24 782.203 1374.32Z" fill="#627F2D"/>
<path id="leaf3" d="M472.332 1135.84C455.627 1137.01 439.888 1144.12 423.04 1144.62C395.292 1147.92 376.349 1171.79 367.514 1196.6C358.43 1208.95 380.109 1223.08 370.394 1235.81C357.791 1239.32 354.923 1221.59 346.94 1215.82C324.453 1188.94 293.604 1166.47 257.401 1165.07C238.827 1162.22 220.323 1168.87 207.434 1182.45C180.778 1209.63 161.739 1246.84 161.034 1285.18C167.61 1295.48 180.146 1309.11 174.277 1322.05C160.227 1319.24 160.06 1295.99 143.754 1295.79C129.346 1294.51 114.975 1292.76 101.126 1289.09C77.1614 1286.36 53.4054 1298.48 38.143 1316.35C16.5545 1350.71 8.84538 1395.62 23.1873 1434.1C34.6077 1452.98 48.9195 1470.82 65.8151 1485.11C83.1993 1499.21 105.983 1505.12 123.355 1518.71C126.968 1526.17 121.553 1533.33 113.517 1531.2C81.1122 1536.67 60.4311 1579.32 79.084 1607.5C83.1724 1617.69 85.3341 1628.98 95.4848 1635.49C120.236 1656.89 156.369 1652.23 185.972 1646.19C204.046 1642.67 221.455 1633.45 229.992 1616.38C234.574 1611.47 238.153 1596.57 247.433 1600.67C254.726 1618 236.138 1630.61 231.086 1645.6C215.84 1675.66 227.147 1714.37 254.908 1732.95C267.502 1743.86 284.856 1742.18 299.626 1747.99C319.375 1747.75 338.885 1740.53 357.222 1733.59C375.727 1724.78 395.22 1711.89 398.539 1689.9C406.954 1664.31 382.557 1643.51 383.926 1618.64C388.429 1609.79 399.51 1620.55 403.271 1625.61C407.969 1635.12 415.956 1643.32 414.74 1654.58C418.604 1686.6 458.217 1705.18 486.569 1692.06C502.032 1686.87 514.668 1674.89 531.566 1673.91C539.912 1670.4 548.226 1666.63 555.527 1661.41C568.426 1648.97 582.787 1632.06 575.655 1612.8C569.262 1583.9 545.842 1563.91 531.816 1539.15C527.04 1528.77 543.854 1526.09 547.983 1534.27C566.437 1549.07 579.883 1574.6 605.799 1577.42C626.727 1587.03 648.327 1573.12 666.37 1563.38C690.664 1548.21 699.342 1518.53 709.275 1493.34C714.452 1476.83 719.31 1459.13 717.676 1441.97C708.578 1438.34 701.563 1431.67 700.903 1421.6C698.085 1411.61 689.535 1406.43 681.151 1402.12C672.094 1393.35 658.026 1394.04 648.02 1387.97C644.625 1380.41 647.655 1371.48 656.733 1371.04C682.97 1369.77 701.923 1347.67 716.603 1328.16C724.249 1309.17 719.66 1285.93 709.25 1268.8C689.886 1251.18 667.551 1233.67 640.101 1232.72C617.242 1231.95 593.172 1228.53 571.049 1235.5C553.357 1243.88 542.005 1261 522.607 1266.51C517.934 1269.06 502.445 1272.37 508.591 1262.06C516.9 1244.1 542.853 1238.05 542.76 1215.69C547.59 1197.74 543.989 1178.36 531.444 1164.37C524.591 1153.96 511.386 1151.01 504.322 1141.45C494.662 1136.26 483.062 1135.86 472.332 1135.84Z" fill="#627F2D"/>
<path id="leaf4" d="M1528.32 1056.6C1500.19 1058 1471.52 1070.83 1453.38 1092.54C1440.45 1104.25 1461.18 1113.74 1459.14 1126.83C1462.17 1140.49 1469.59 1160.02 1454.45 1169.22C1434.76 1186.47 1412.26 1200.26 1390.71 1214.74C1363.02 1223.05 1332.8 1222.32 1304.89 1216.49C1291.79 1222.14 1291.59 1238.89 1288.68 1250.61C1282.44 1258.47 1281.45 1269.51 1274.19 1277.18C1254.68 1308.74 1212.16 1316.51 1178.36 1310.28C1165.32 1306.08 1157.76 1294.86 1150.22 1284.31C1133.96 1276.2 1120.31 1293.47 1106.52 1298.69C1079.27 1314.37 1045.33 1312.64 1016.9 1302.65C997.932 1296.38 984.558 1277.51 986.248 1257.59C985.11 1243.19 988.252 1228.11 985.221 1214.2C955.678 1205.75 925.985 1187.86 913.067 1159.1C909.198 1142.15 916.275 1121.05 904.252 1106.77C891.526 1100.44 878.464 1113.19 869.536 1121.11C862.545 1127.9 861.446 1137.77 855.936 1145.53C849.158 1165.3 857.52 1185.71 856.731 1205.62C855.618 1215.51 837.915 1215.09 839.375 1203.8C836.57 1189.34 839.196 1170.44 823.355 1162.54C800.574 1150.57 774.59 1165.59 756.29 1179.36C742.467 1195.91 726.846 1216.1 728.631 1238.87C735.756 1267.6 749.485 1300.15 732.232 1328.11C724.246 1348.26 704.389 1359.97 692.474 1376.79C700.623 1385.51 710.719 1395.35 722.591 1398.89C738.429 1396.08 747.701 1379.87 760.799 1371.62C774.338 1359.68 793.675 1352.45 810.879 1361.36C835.633 1369.18 856.112 1389.09 862.454 1414.41C863.486 1419.92 867.709 1430.32 874.264 1423.65C898.359 1405.13 919.623 1374.49 953.37 1375.44C989.448 1374.74 1024.91 1386.88 1054.02 1408.01C1062.3 1413.61 1073.68 1417.76 1081.61 1409.13C1100.56 1398.85 1124.59 1397.41 1142.69 1410.73C1149.31 1414.42 1160.76 1422.55 1164.66 1411.21C1174.68 1392.97 1191.21 1377.8 1209.44 1367.88C1227.54 1362.27 1247.61 1363.93 1266.13 1366.69C1275.96 1368.06 1286.28 1378.6 1296.14 1374.73C1300.49 1359.09 1295.58 1339.69 1309.3 1327.2C1324.25 1306.71 1339.11 1280.86 1366.33 1275.92C1383.49 1274.27 1403.09 1270.25 1418.83 1279.15C1435.78 1291.43 1450.09 1307.13 1461.52 1324.47C1468.45 1332.61 1479.08 1327.63 1479.79 1317.7C1496.76 1296.13 1517.47 1274.19 1544.49 1266.46C1571.66 1262.42 1600.93 1261.51 1627 1271.31C1637.57 1278.55 1651.74 1276.56 1662.15 1270.52C1673.69 1256.89 1683.03 1239.64 1685.05 1221.69C1682.29 1195.04 1655.57 1178.04 1630.78 1174.91C1604.05 1169.38 1575.91 1171.57 1549.44 1167.47C1549.63 1151.21 1566.52 1141.73 1574.28 1128.82C1580.89 1118.32 1588.19 1105.12 1586.59 1092.84C1581.21 1074.12 1564.5 1061.89 1545.9 1058.38C1540.14 1057.07 1534.22 1056.49 1528.32 1056.6Z" fill="#627F2D"/>
<path id="leaf5" d="M1236.53 906.271C1212.68 908.138 1188.21 916.593 1169.89 932.091C1157.28 955.715 1145.22 985.56 1158.32 1011.63C1155.98 1017.81 1144.41 1023.77 1139.69 1015.77C1125.06 996.52 1104.75 977.533 1078.66 979.595C1054.08 978.83 1042.43 1005.6 1037.38 1025.71C1032.39 1049.48 1036.23 1076.44 1054.24 1094.05C1056.37 1097.68 1062.87 1104.98 1060.03 1107.75C1040.83 1102.57 1025.54 1086.75 1018.83 1068.36C1006.48 1056.14 986.422 1060.48 970.666 1059.85C957.006 1058.72 944.74 1068.17 942.881 1081.89C940.036 1096.11 934.578 1109.6 926.099 1121.51C921.515 1135.99 932.23 1149.41 937.949 1161.52C946.632 1181.07 968.142 1191.52 986.073 1201.28C997.367 1200.52 1009.4 1192.22 1020.98 1195.73C1022.62 1203.58 1020.85 1211.5 1012.92 1214.73C993.321 1234.82 998.513 1270.6 1017.02 1289.77C1037.57 1307.34 1069.84 1306.96 1092.52 1293.52C1117.57 1281.47 1139.7 1260.82 1146.45 1233C1148.52 1228.09 1152.07 1215.33 1158.81 1223.11C1170.56 1245.51 1158.37 1277.61 1180.45 1295.13C1187.83 1301.91 1196.99 1311.62 1207.6 1304.41C1231.91 1295.97 1263.58 1285.54 1269.44 1256.72C1276.97 1231.84 1275.08 1205.32 1268.45 1180.6C1267.39 1175.44 1265.92 1164.54 1274.7 1167.74C1287.25 1174.18 1288.64 1192 1301.45 1198.98C1324.03 1214.98 1355 1214.47 1380.45 1206.48C1402.95 1194.61 1423.92 1178.34 1440.15 1158.74C1448.92 1133.56 1433.2 1101.88 1407.15 1094.47C1396.97 1090.89 1382.41 1088 1383.65 1073.83C1381.23 1063.44 1399.69 1073.48 1405.61 1072.08C1419.05 1073.15 1434.72 1080.39 1445.77 1068.9C1459.61 1058.93 1476.5 1049.53 1479.42 1031C1485.79 1012.12 1490.19 990.365 1478.28 972.576C1464.77 940.996 1427.88 930.287 1396.27 930.621C1376.23 931.972 1353.53 931.807 1336.69 943.991C1334.06 948.929 1325.53 946.876 1324.03 953.825C1317 964.941 1308.69 977.606 1296.58 983.259C1289.96 981.084 1293.12 969.667 1291.76 964.306C1292.06 948.616 1293.75 929.036 1277.82 919.925C1265.9 911.436 1251.38 905.488 1236.53 906.271Z" fill="#709933"/>
<path id="leaf6" d="M1126.72 770.052C1100.97 770.844 1076 780.914 1057.79 799.338C1040.79 812.161 1028.43 830.622 1024.24 851.27C1015.24 874.576 993.927 890.356 975.948 906.697C954.307 921.511 927.764 924.758 903.515 933.296C890.283 945.476 886.411 963.271 882.024 979.865C874.277 1002.96 847.711 1006.87 827.298 1011.92C796.309 1019.38 762.285 1015.89 733.266 1002.93C718.216 996.004 715.792 976.941 705.105 966.668C667.386 963.975 625.348 967.748 593.595 943.729C579.841 933.926 564.699 921.831 563.139 903.819C556.176 891.681 556.592 877.695 554.691 864.396C547.768 850.837 527.836 853.48 515.602 856.967C496.25 861.991 484.48 878.804 476.28 895.786C460.068 925.241 464.703 962.761 484.997 989.061C491.999 1001.3 509.741 1006.77 511.249 1021.67C497.863 1029.19 484.537 1015.62 474.61 1007.85C454.813 994.578 427.247 989.843 405.123 999.673C397.186 1004.95 394.439 1014.83 389.226 1022.37C382.247 1039.54 392.718 1056.87 389.226 1074.28C392.23 1093 410.419 1104.31 421.098 1118.58C441.11 1119.19 461.307 1113.01 481.807 1114.95C504.642 1115.14 529.188 1123.89 542.069 1143.42C550.451 1160.25 563.149 1175.71 564.297 1195.42C565.022 1202.06 565.288 1216.29 575.64 1212.96C609.804 1205.76 645.975 1206.72 679.623 1215.37C688.315 1219.32 699.265 1227.72 707.885 1218.45C722.142 1202.41 728.753 1180.55 745.614 1166.41C766.612 1144.22 799.429 1132.75 829.56 1141.37C836.525 1143.3 846.504 1143.8 846.919 1134.05C852.608 1118.84 853.271 1097.43 871.31 1091.29C887.468 1081.33 911.402 1089.66 922.972 1071.71C933.861 1060.46 941.173 1040.04 959.536 1040.5C977.57 1037.58 995.178 1045.45 1012.91 1044.34C1024.04 1040.46 1017.52 1027.11 1021.82 1018.93C1028.67 996.603 1035.36 966.743 1061.79 960.634C1079.88 958.433 1101.16 955.691 1117.21 966.161C1121.81 971.792 1132.09 978.168 1136.45 968.738C1149.88 945.462 1152.19 913.769 1177.76 899.125C1202.48 883.554 1234.23 876.269 1262.75 883.806C1276.38 890.645 1296.03 896.505 1301.36 912.643C1302.01 921.158 1309.44 937.76 1320.1 930.866C1332.23 922.776 1340.84 908.287 1335.4 893.585C1331 876.81 1328.19 857.221 1315.41 844.67C1285.11 834.586 1251.96 833.369 1220.45 835.083C1209.25 842.236 1201.04 858.186 1186.9 859.502C1174.99 850.338 1185.77 834.38 1191.1 824.448C1198.97 811.035 1200.05 789.98 1183.78 782.303C1166.43 773.497 1146 770.349 1126.7 770.052H1126.72Z" fill="#709933"/>
<path id="leaf8" d="M827.58 594.398C795.275 594.169 766.512 613.47 742.787 633.559C735.85 640.594 730.787 648.986 723.099 654.993C713.163 667.454 711.745 684.419 704.598 697.764C695.757 698.76 702.525 684.781 700.664 679.88C700.305 669.457 706.338 652.14 689.888 652.775C652.627 642.619 609.449 645.734 578.522 670.558C571.647 683.562 564.817 697.506 561.407 712.128C560.307 728.863 556.784 746.804 561.7 763.033C568.45 774.836 561.374 795.84 578.029 800.555C594.942 807.185 615.451 804.11 630.269 815.393C637.045 823.074 626.59 828.032 619.765 827.546C608.333 829.002 595.578 832.65 591.023 844.53C585.105 853.964 565.341 859.578 571.627 873.55C574.95 881.032 574.611 889.769 580.679 895.977C588.234 920.734 613.073 935.014 634.564 946.574C656.944 957.853 688.733 963 706.683 941.067C713.501 933.591 719.958 917.373 732.593 923.53C735.928 935.388 726.882 947.729 729.194 960.177C728.682 983.501 751.545 1000.01 772.11 1004.99C800.94 1008.26 831.554 1002.74 857.063 988.875C879.664 973.093 877.453 942 874.833 917.888C873.761 908.675 863.392 900.315 866.436 891.087C878.333 886.239 892.551 891.343 897.416 903.491C907.244 916.59 926.025 921.064 940.085 911.807C963.307 902.627 983.122 886.511 995.978 865C1006.28 850.254 1020.07 830.604 1009.01 812.481C998.272 787.113 967.205 786.085 945.195 777.778C942.822 767.395 944.054 758.474 957.413 761.698C970.55 761.432 986.658 759.86 991.866 745.39C996.385 741.906 999.756 737.911 1000.47 732.07C1011.98 722.346 1011.32 704.399 1013.84 690.631C1016.46 678.453 1015.49 666.719 1005.44 658.164C998.605 647.915 988.289 638.936 975.044 640.971C950.544 640.563 923.44 638.383 903.141 654.932C890.509 661.683 877.85 676.069 862.32 673.013C851.872 665.799 862.832 651.879 868.376 644.792C880.1 631.212 868.027 612.442 857.95 601.819C849.703 594.55 837.983 594.141 827.58 594.398Z" fill="#709933"/>
<path id="leaf7" d="M488.595 671.842C460.174 672.421 432.016 681.631 407.267 695.215C385.724 711.221 373.733 738.543 374.659 765.036C381.975 781.358 386.958 798.893 397.737 813.469C401.293 821.164 387.432 820.719 383.174 822.377C352.497 828.512 319.07 824.815 290.39 838.698C275.726 854.061 266.272 876.14 269.81 897.742C273.262 935.067 298.491 965.804 326.948 988.059C325.972 998.461 310.576 998.701 302.506 1000.82C281.958 1005.31 257.787 1008.73 243.437 1025.63C238.613 1035.33 231.311 1043.67 226.41 1053.06C223.896 1079.14 235.691 1104.98 249.268 1126.63C257.747 1141.58 275.443 1143.71 290.497 1147.04C302.89 1152.1 318.085 1154.39 328.246 1162.7C332.86 1167.55 340.738 1168.18 345.476 1173.74C355.273 1177.99 360.766 1163.43 366.394 1157.75C371.262 1144.7 393.517 1142.72 390.376 1126.14C383.692 1108.6 374.386 1091.77 371.675 1072.8C369.83 1060.3 364.49 1046 372.377 1034.32C373.483 1027.29 372.03 1020.11 376.65 1013.9C380.017 1000.65 381.625 984.3 397.239 979.375C413.504 972.657 432.14 978.853 448.562 974.71C453.143 943.913 446.749 910.388 458.891 880.805C472.202 867.256 480.314 847.484 499.963 841.33C519.529 831.957 542.019 835.702 561.758 828.019C571.341 817.931 552.531 810.117 551.552 800.407C539.442 778.46 538.975 752.69 542.085 728.3C542.03 712.613 547.831 696.141 544.689 680.797C531.194 670.645 511.971 672.92 495.838 671.76C493.423 671.705 491.009 671.815 488.595 671.842Z" fill="#709933"/>
<path id="leaf9" d="M1102.64 333.514C1071.2 332.735 1049.97 359.183 1028.53 377.823C1010.39 393.797 986.895 400.408 963.696 404.759C953.638 410.425 956.268 425.721 950.712 434.911C945.701 447.908 939.87 461.323 930.008 471.009C930.576 478.898 919.131 476.977 917.622 484.392C902.618 501.165 877.307 503.552 856.491 506.542C829.03 509 792.592 506.758 779.295 478.239C774.552 460.862 778.485 442.317 780.364 424.984C775.705 418.126 764.834 421.988 758.528 416.359C743.296 408.287 723.527 397.778 725.131 377.404C722.734 366.217 729.21 350.166 718.945 342.017C703.07 338.614 692.643 355.915 683.586 366.172C674.278 377.699 667.737 391.203 665.617 405.824C656.586 423.057 656.815 444.75 664.84 462.244C673.611 476.783 695.644 477.551 703.406 491.948C688.294 503.179 668.972 492.383 652.991 489.075C629.03 486.366 606.12 503.947 595.864 524.585C589.065 548.548 590.541 575.072 597.592 598.852C602.429 615.754 619.658 625.766 636.78 623.349C649.14 623.349 661.87 622.728 673.274 627.529C682.643 626.109 688.017 635.418 697.219 634.928C708.176 643.731 722.233 634.234 726.458 622.876C732.415 610.487 745.445 605.308 754.189 595.369C781.013 575.796 816.193 564.202 849.132 568.45C873.547 575.06 884.536 601.51 893.221 622.808C902.08 628.302 912.262 614.851 922.794 616.909C933.769 615.581 943.115 607.523 954.797 611.386C983.333 613.002 1013.04 626.389 1026.96 652.187C1033.85 674.906 1029.57 699.964 1022.94 722.257C1016.36 738.103 996.181 750.869 1000.72 769.917C1009.5 787.295 1036.64 787.984 1047.62 772.292C1053.8 766.493 1061.89 763.449 1067.24 757.218C1082.19 749.334 1096.43 741.033 1113.46 740.936C1129.24 738.749 1145.08 740.729 1159.83 746.408C1175.05 745.163 1186.81 754.992 1199.29 761.52C1206.68 762.555 1207.18 773.194 1213.75 775.753C1219.06 786.528 1215.13 799.21 1218.35 810.102C1244.85 814.064 1272.73 809.432 1298.52 815.937C1309.23 819.104 1320.75 819.582 1331.62 822.145C1345.1 815.203 1350.56 798.057 1353.95 784.154C1355.19 771.485 1347.2 760.644 1341.43 750.587C1336.77 736.256 1318.37 733.791 1305.9 729.209C1288.1 723.277 1267.7 723.538 1250.77 717.114C1246.84 706.859 1247.09 696.752 1261.23 701.275C1282.81 699.672 1308.86 705.561 1326.76 690.343C1351.77 661.935 1327.86 607.32 1288.73 610.27C1271.3 609.529 1252.52 616.478 1235.77 611.682C1231.82 605.005 1232.57 595.533 1241.62 594.439C1259.52 588.442 1283.64 584.618 1291.22 564.752C1301.89 557.407 1299.16 541.051 1300.26 529.648C1300.91 512.683 1295.52 493.294 1278.28 486.366C1254.46 472.504 1226.79 461.944 1198.88 468.106C1184.1 469.32 1168.63 476.267 1153.98 473.477C1146.28 464.792 1155.42 453.521 1164.85 451.468C1177.51 446.178 1194.34 439.823 1194.22 423.332C1194.87 403.189 1200.26 379.49 1185.54 362.876C1179.9 348.914 1161.96 347.289 1149.93 341.142C1134.89 335.094 1118.78 332.946 1102.64 333.514Z" fill="#709933"/>
<path id="leaf10" d="M957.591 18.6615C940.095 19.0053 919.589 27.2595 913.059 44.127C901.342 53.0695 904.617 71.0676 902.327 84.0496C900.701 96.3934 902.735 110.896 897.95 122.078C882.421 121.468 873.973 101.261 856.98 103.007C822.439 103.958 789.373 125.974 774.261 156.998C759.464 174.668 763.66 198.921 764.886 220.099C765.945 235.008 775.443 248.035 790.225 251.871C797.934 256.739 816.668 259.519 811.252 272.522C797.557 274.412 783.723 269.833 770.315 272.306C758.318 282.658 751.976 297.564 743.805 310.377C741.195 324.617 738.447 338.875 735.16 352.916C734.031 371.575 742.009 395.356 763.634 397.343C782.095 402.52 798.627 388.967 816.606 390.29C825.534 391.915 823.785 404.151 815.512 405.418C799.773 414.241 790.404 430.77 790.197 448.675C787.742 461.493 790.959 476.759 804.461 481.832C837.789 497.228 877.211 485.391 906.686 466.791C926.223 450.968 937.372 426.229 942.94 402.232C945.043 392.931 932.973 389.548 936.917 379.543C936.477 367.767 951.972 374.676 958.498 374.276C974.518 378.473 991.176 375.86 1004.79 366.312C1020.23 357.721 1028.69 341.303 1040.93 329.086C1044.86 321.758 1052.25 317.001 1052.07 307.61C1051.69 295.193 1061.57 282.653 1053.4 270.844C1047.97 254.856 1031.55 247.315 1015.63 246.997C1007.76 247.882 997.674 241.103 1000.8 232.658C1028.95 223.421 1057.54 209.239 1076.32 185.565C1079.08 178.544 1086.28 175.681 1087.5 168.065C1101.31 151.073 1096.17 126.796 1096.08 106.561C1095.28 87.1785 1071.52 82.3887 1055.96 84.0496C1032.61 89.1825 1014.53 108.657 1002.22 128.207C996.754 137.13 991.065 153.517 977.254 147.489C965.96 145.375 976.912 133.499 977.744 126.864C984.622 103.702 999.806 82.9104 1003.92 58.7952C1002.47 39.9873 985.546 24.189 968.216 19.0759C964.704 18.5498 961.132 18.5336 957.591 18.6615Z" fill="#709933"/>
<path id="leaf1" d="M1573.31 1281.76C1535.51 1283.39 1498.95 1306.75 1483.8 1341.81C1474.67 1349.22 1484.51 1365.85 1474.29 1371.54C1458.62 1374.18 1449.93 1358.1 1445.68 1345.78C1430.92 1321.89 1407.11 1300.97 1378.86 1296.11C1349.79 1300.47 1324.99 1324.58 1315.9 1352.03C1309.75 1373.07 1318.79 1395.29 1331.66 1411.57C1333.28 1419.99 1327.53 1436.06 1316.55 1428.9C1289.45 1412.37 1263.56 1389.62 1230.34 1387.36C1208.71 1384.3 1183.01 1397.41 1181.34 1421.11C1180.55 1428.27 1173.91 1431.93 1171.93 1438.67C1154.79 1450.34 1147.8 1472.7 1144.79 1492.31C1147.35 1517.27 1155.36 1543.79 1173.21 1562.09C1179 1563.14 1184.52 1575.27 1177.5 1576.99C1166.32 1573.89 1151.82 1562.88 1142.05 1575.3C1119.6 1599.22 1108.66 1633.58 1116.52 1665.82C1125.84 1708.12 1168.46 1734.76 1208.8 1741.69C1228.41 1743.41 1245.9 1731.35 1262.04 1721.8C1269.71 1717.2 1278.02 1706.33 1286.62 1706.57C1273.49 1730.44 1279.47 1759.81 1287.33 1784.52C1291.37 1796.24 1300.06 1805.29 1306.43 1815.53C1325.55 1837.08 1351.98 1852.27 1381.25 1853.21C1402.4 1855.46 1425.22 1854.61 1442.46 1840.46C1452.49 1832.12 1467.47 1826.07 1472.4 1813.43C1468.66 1801.6 1455.82 1794.33 1454.06 1781.17C1452.35 1770.88 1448.5 1756.44 1456.39 1748.1C1464.96 1744.04 1469.01 1752.54 1464.72 1759.69C1459.02 1771.65 1465.22 1787.13 1472.76 1796.98C1479.51 1802.86 1490.42 1805.24 1489.64 1816.62C1491.33 1836.07 1508.44 1847.5 1524.61 1854.9C1540.2 1863.94 1559.61 1857.39 1576.98 1858.73C1591 1857.52 1612.45 1859.71 1617.92 1842.99C1627.84 1837.74 1634.96 1828.1 1635.24 1816.48C1639.47 1779.61 1625.18 1744.1 1614.85 1709.65C1604.43 1705.19 1612.67 1685.48 1623.29 1692.26C1634.57 1698.33 1631.5 1714.17 1642.49 1720.88C1662.82 1738.24 1691.91 1729.84 1715.92 1728.18C1729.43 1727.21 1742.46 1722.43 1751.74 1712.43C1764.01 1702.51 1769.42 1685.84 1775.84 1671.76C1782.23 1641.79 1775.59 1609.45 1756.7 1585.07C1739.44 1561.19 1716.95 1541.63 1694.32 1523.23C1689.11 1511.98 1702.76 1513.91 1710.76 1513.59C1723.09 1513.06 1737.38 1515.05 1743.52 1501.57C1757.42 1484.01 1773.45 1459.67 1761.5 1436.94C1748.51 1403.04 1714.07 1376.67 1676.75 1380.84C1659.74 1382.45 1644.73 1395.27 1627.88 1394.98C1632.95 1378.7 1650.01 1368.93 1657.27 1354.11C1641.84 1319.81 1615.52 1280.93 1573.31 1281.76Z" fill="#627F2D"/>
<path id="path872" d="M946.809 0.116443C942.076 0.0185162 938.216 0.767699 933.41 2.14629C921.413 5.58678 903.092 20.019 902.967 26.1286C902.913 27.8771 899.684 33.8241 895.752 39.3467C891.82 44.8692 886.158 57.8253 883.161 68.1321L877.71 86.8649L846.13 88.916C827.475 90.1249 808.927 93.6938 800.822 97.6288C786.896 104.39 768.048 122.631 760.582 136.583C742.573 170.231 737.991 224.789 751.274 247.303C759.043 260.471 757.268 270.619 745.929 277.873C743.345 279.527 741.222 282.653 741.222 284.822C741.222 286.992 738.576 294.356 735.335 301.186C730.882 310.572 726.294 314.2 716.538 316.03C709.439 317.362 703.628 320.07 703.628 322.044C703.628 324.019 701.261 325.625 698.379 325.625C686.372 325.625 658.511 360.976 658.511 376.204C658.511 379.409 656.937 382.027 655.015 382.027C650.344 382.027 642.555 420.409 645.612 428.376C646.972 431.922 646.215 434.666 643.869 434.666C641.519 434.666 639.704 441.223 639.704 449.713C639.704 458.135 637.884 464.748 635.57 464.748C626.702 464.748 603.488 477.969 593.758 488.561C588.131 494.686 581.578 505.795 579.201 513.244C576.823 520.694 573.39 528.398 571.572 530.362C567.509 534.751 567.133 596.348 571.169 596.348C576.78 596.348 573.681 635.955 567.365 644.971C561.68 653.088 560.192 653.435 549.737 649.104C543.456 646.509 535.964 645.276 533.076 646.384C530.189 647.492 526.347 647.059 524.543 645.417C520.274 641.53 491.113 637.163 488.288 639.988C487.092 641.185 477.127 642.777 466.144 643.537C455.16 644.295 445.581 646.685 444.861 648.839C444.143 650.991 439.734 652.75 435.053 652.75C430.371 652.75 422.641 656.136 417.872 660.272C413.103 664.408 407.846 667.795 406.194 667.795C400.856 667.795 375.947 695.595 368.845 709.48C363.3 720.32 362.145 730.008 362.968 758.868L363.989 794.783L337.414 797.398C322.799 798.837 305.732 802.168 299.49 804.793C283.441 811.54 264.556 830.284 258.008 845.957C246.402 873.733 254.688 927.681 273.712 948.209C278.549 953.428 282.51 960.153 282.51 963.148C282.51 966.143 284.193 968.588 286.261 968.588C288.33 968.588 290.023 970.283 290.023 972.351C290.023 974.418 287.064 976.165 283.446 976.165C261.683 976.344 222.348 1001.45 222.348 1015.15C222.348 1018.15 220.71 1021.17 218.714 1021.86C216.717 1022.55 213.942 1032.93 212.54 1044.92C209.739 1068.87 213.473 1084.26 230.529 1119L240.688 1139.67L223.644 1147.96C207.785 1155.68 188.505 1172.37 188.505 1178.4C188.502 1179.85 184.268 1185.94 179.101 1191.95C173.933 1197.96 169.708 1205.15 169.708 1207.93C169.708 1210.71 168.285 1212.99 166.552 1212.99C160.803 1212.99 142.636 1255.01 144.397 1264.23C146.397 1274.69 146.131 1274.77 132.804 1267.87C117.197 1259.8 89.2732 1256.77 74.7348 1261.57C56.638 1267.55 27.087 1297.49 12.8718 1324.25C1.54387 1345.58 0.801328 1349.31 1.0135 1384.27C1.19303 1413.28 2.84851 1424.67 8.47277 1435.7C15.5496 1449.57 56.6487 1493.11 77.03 1508.32L87.3263 1516L79.272 1525.24C62.6294 1544.31 55.8681 1562.85 58.0099 1583.61C61.5402 1617.81 77.7974 1641.27 107.664 1655.27C119.755 1660.93 131.365 1662.3 166.881 1662.19L211.063 1662.07V1678.6C211.063 1725.15 255.321 1757.92 318.447 1758.12L341.218 1758.2L347.859 1773.24C351.509 1781.51 355.93 1788.28 357.687 1788.28C359.445 1788.28 362.843 1794.2 365.232 1801.44C367.621 1808.68 371.134 1814.6 373.042 1814.6C374.95 1814.6 376.506 1816.82 376.506 1819.53C376.506 1822.24 379.893 1828.1 384.029 1832.54C388.164 1836.98 391.552 1842.36 391.552 1844.49C391.552 1846.63 394.928 1850.5 399.064 1853.08C403.2 1855.66 406.587 1859.3 406.587 1861.16C406.587 1865.1 438.113 1903.14 450.673 1914.36C455.378 1918.56 459.227 1923.93 459.227 1926.28C459.227 1928.63 465.144 1936.13 472.382 1942.96C479.62 1949.79 485.547 1957.72 485.547 1960.58C485.547 1963.44 490.254 1972.8 496.013 1981.37C501.773 1989.95 508.753 2002.46 511.516 2009.18C514.279 2015.9 517.835 2021.4 519.422 2021.4C521.009 2021.4 523.383 2027.15 524.703 2034.18C526.022 2041.21 529.503 2048.95 532.428 2051.38C535.347 2053.8 536.887 2058 535.849 2060.71C533.672 2066.38 553.719 2119.47 573.496 2160.42C580.96 2175.87 587.065 2191.52 587.065 2195.2C587.065 2198.87 588.479 2201.88 590.2 2201.88C591.92 2201.88 592.556 2211.18 591.613 2222.56C590.399 2237.19 591.227 2243.24 594.45 2243.24C597.682 2243.24 598.271 2247.61 596.469 2258.28C594.889 2267.63 595.367 2273.33 597.744 2273.33C599.847 2273.33 601.591 2278.82 601.591 2285.55C601.645 2304.41 602.613 2310.71 610.144 2340.66C613.998 2355.99 617.147 2373.33 617.147 2379.2C617.147 2385.07 618.429 2389.88 619.994 2389.88C621.558 2389.88 622.297 2397.07 621.631 2405.86C620.966 2414.65 623.283 2441.3 626.774 2465.08C634.922 2520.6 635.981 2571.18 629.451 2592.93C626.658 2602.23 625.129 2612.8 626.051 2616.42C626.973 2620.04 626.459 2623 624.914 2623C620.907 2623 612.578 2652.49 615.33 2656.95C616.591 2658.99 615.166 2661.6 612.163 2662.75C609.162 2663.9 605.799 2669.41 604.683 2674.99C603.565 2680.57 599.023 2689.33 594.588 2694.45C590.153 2699.56 585.584 2708.42 584.441 2714.13C583.298 2719.85 580.884 2724.53 579.075 2724.53C577.265 2724.53 575.791 2727.65 575.791 2731.47C575.791 2735.28 572.58 2742.11 568.661 2746.63C561.061 2755.39 555.119 2778.61 558.907 2784.74C560.164 2786.78 559.691 2788.44 557.855 2788.44C553.692 2788.44 536.153 2825.26 538.973 2828.09C540.107 2829.22 536.143 2835.57 530.175 2842.2C510.087 2864.5 504.344 2871.42 504.344 2873.32C504.344 2874.36 494.193 2885.23 481.785 2897.48C458.443 2920.54 455.984 2926.23 463.892 2938.89C468.786 2946.73 488.427 2949.31 495.131 2942.99C501.308 2937.18 532.542 2932.33 541.8 2935.76C546.613 2937.54 553.27 2938.24 556.589 2937.31C559.908 2936.38 591.465 2934.55 626.719 2933.25C661.973 2931.94 697.504 2929.32 705.679 2927.43C713.854 2925.53 730.695 2923.91 743.103 2923.82C755.511 2923.74 785.625 2920.42 810.014 2916.47C834.404 2912.52 859.775 2910.05 866.405 2910.99C873.036 2911.92 898.766 2914.21 923.582 2916.07C961.081 2918.87 969.729 2918.53 974.745 2914.02C978.179 2910.92 983.603 2909.66 987.337 2911.09C993.88 2913.6 1000.49 2907.47 1000.61 2898.79C1000.66 2896.41 994.745 2888.55 987.507 2881.31C980.269 2874.07 974.34 2867.14 974.34 2865.9C974.34 2862.72 945.689 2833.56 942.558 2833.56C938.517 2833.56 929.224 2823.27 929.224 2818.79C929.224 2816.57 927.531 2814.76 925.463 2814.76C923.395 2814.76 921.701 2812.24 921.701 2809.15C921.701 2806.07 918.325 2801.43 914.189 2798.84C910.053 2796.26 906.666 2792.79 906.666 2791.13C906.666 2788.06 902.473 2782.36 890.685 2769.37C887.066 2765.38 884.108 2759.78 884.108 2756.94C884.108 2754.09 881.567 2749.65 878.465 2747.07C875.363 2744.5 872.823 2739.22 872.823 2735.33C872.823 2731.45 871.13 2728.28 869.062 2728.28C866.994 2728.28 865.3 2725.21 865.3 2721.47C865.3 2717.72 861.924 2707.65 857.788 2699.09C853.652 2690.53 850.265 2681.58 850.265 2679.21C850.265 2676.84 847.898 2669.56 845.005 2663.05C827.465 2623.53 813.646 2516.13 811.065 2399.27C809.89 2346.1 810.674 2326.39 814.137 2322.19C816.695 2319.09 821.052 2307.28 823.817 2295.95C826.583 2284.62 835.356 2264.71 843.315 2251.7C851.275 2238.7 857.788 2226.34 857.788 2224.22C857.788 2220.03 879.952 2197.53 897.507 2183.9C913.493 2171.49 966.042 2139.47 984.679 2130.78C993.468 2126.69 1000.66 2121.86 1000.66 2120.06C1000.66 2118.26 1014.2 2110.44 1030.74 2102.7C1047.29 2094.95 1060.82 2087.03 1060.82 2085.09C1060.82 2083.15 1062.44 2081.55 1064.42 2081.55C1068.11 2081.55 1080.25 2073.65 1109.56 2052.16C1130.34 2036.93 1173.63 1995.65 1173.63 1991.07C1173.63 1989.22 1179.13 1981.96 1185.85 1974.94C1221.89 1937.34 1248.83 1901.8 1248.83 1891.87C1248.83 1888.66 1250.52 1886.04 1252.59 1886.04C1254.65 1886.04 1256.35 1883.5 1256.35 1880.4C1256.35 1877.3 1257.69 1874.75 1259.34 1874.75C1261 1874.75 1264.62 1868.47 1267.4 1860.79C1270.18 1853.11 1274.62 1844.66 1277.28 1842.01C1283.08 1836.21 1293.94 1839.55 1293.94 1847.13C1293.94 1850.1 1299.01 1855.43 1305.2 1858.95C1311.39 1862.48 1316.48 1866.48 1316.48 1867.87C1316.55 1875.09 1356.1 1882.95 1385.34 1881.56C1418.21 1879.99 1456.05 1866.33 1460.64 1854.36C1461.89 1851.1 1465.3 1848.43 1468.23 1848.43C1471.15 1848.43 1474.43 1845.05 1475.51 1840.91C1478.06 1831.18 1484.33 1831.33 1489.64 1841.24C1494 1849.4 1520.34 1863.26 1531.77 1863.4C1533.56 1863.4 1534.93 1863.22 1536 1862.85C1557.44 1868.76 1600.44 1873.23 1603.88 1867.66C1605.02 1865.82 1611.58 1863.27 1618.47 1861.97C1636.16 1858.65 1653.4 1840.57 1656.33 1822.24C1657.64 1814.01 1657.61 1792.84 1656.26 1775.21L1653.79 1743.16L1664.68 1742.46C1670.67 1742.09 1680.65 1742.15 1686.86 1742.62C1708.36 1744.24 1750.21 1734.87 1764.9 1725.14C1775.77 1717.96 1782.52 1708.69 1792.31 1687.5C1804.08 1662.03 1805.29 1656.19 1805.29 1625.57C1805.29 1597.32 1803.93 1589.53 1796.99 1578.16C1792.43 1570.68 1787.36 1563.99 1785.72 1563.3C1784.08 1562.61 1782.73 1560.11 1782.73 1557.74C1782.73 1555.36 1775.23 1546.42 1766.05 1537.88L1749.37 1522.34L1757.59 1515.24C1775.01 1500.22 1787.97 1471.7 1785.18 1454.51C1784.05 1447.55 1784.81 1438.15 1786.88 1433.62C1789.61 1427.62 1789.04 1421.58 1784.81 1411.44C1778.17 1395.55 1756.92 1370.91 1749.86 1370.91C1747.26 1370.91 1745.14 1369.3 1745.14 1367.33C1745.14 1362 1719.65 1355.9 1697.2 1355.9C1676.24 1355.9 1676.49 1356.14 1676.77 1333.37C1676.87 1326.17 1675.62 1319.4 1674.01 1318.34C1669.16 1315.11 1665.64 1295.72 1669.9 1295.72C1676.06 1295.72 1695.89 1276.54 1701.63 1265.04C1708.18 1251.9 1713.7 1197.96 1708.49 1197.96C1706.46 1197.96 1701.89 1190.34 1698.33 1181.03C1694.78 1171.73 1689.7 1164.12 1687.05 1164.12C1684.4 1164.12 1677.78 1160.61 1672.33 1156.33C1666.89 1152.04 1655.24 1147.85 1646.45 1147.02C1602.83 1142.88 1595.13 1140.87 1598.44 1134.51C1614.3 1104.07 1617.74 1082.04 1607.9 1073.87C1604.8 1071.3 1602.2 1067.29 1602.13 1064.96C1601.96 1059.16 1590.64 1046.75 1579.86 1040.56C1567.59 1033.51 1531.92 1030.81 1514.52 1035.62C1501.58 1039.19 1500.38 1038.95 1502.81 1033.24C1504.3 1029.74 1505.71 1023.49 1505.94 1019.35C1506.18 1015.21 1507.57 1010.93 1509.03 1009.83C1513.43 1006.51 1504.85 957.141 1498.82 951.112C1495.74 948.025 1493.21 943.79 1493.21 941.708C1493.21 935.533 1462.15 908.429 1455.07 908.429C1451.48 908.429 1447.39 906.582 1445.99 904.316C1444.59 902.051 1438.58 900.902 1432.62 901.776C1426.66 902.651 1421.78 901.722 1421.78 899.715C1421.78 897.494 1411.6 896.914 1395.81 898.238C1373.4 900.117 1368.97 899.442 1363.4 893.287C1359.83 889.343 1357.98 883.445 1359.27 880.1C1360.54 876.771 1359.76 866.8 1357.52 857.935C1353.84 843.31 1354.44 839.944 1363.97 821.711C1372.66 805.107 1374.37 797.451 1373.78 777.636C1373.13 755.529 1371.73 751.884 1356.06 731.031C1346.71 718.589 1339.06 707.189 1339.06 705.7C1339.06 704.209 1343.29 699.314 1348.46 694.819C1353.63 690.323 1358.07 683.672 1358.32 680.039C1360.45 649.465 1360.2 637.275 1357.39 635.538C1355.58 634.422 1354.09 630.156 1354.09 626.06C1354.09 616.753 1326.98 589.717 1314.51 586.586C1305.94 584.434 1300.97 573.792 1308.54 573.792C1310.37 573.792 1315.69 564.362 1320.37 552.838C1329.38 530.636 1329.44 531.352 1315.44 493.536C1310.2 479.409 1285.4 453.477 1277.13 453.477C1274.84 453.477 1266.26 450.027 1258.07 445.816C1249.87 441.604 1239.99 438.963 1236.1 439.95C1227.89 442.035 1220.88 436.097 1216.95 423.693C1215.18 418.142 1215.84 413.897 1218.75 412.1C1222.35 409.875 1222.32 403.513 1218.56 382.486C1215.93 367.759 1212.35 355.709 1210.61 355.709C1208.88 355.709 1207.46 354.03 1207.46 351.98C1207.46 345.561 1183.69 324.916 1167.97 317.68C1159.7 313.871 1146.93 310.727 1139.59 310.678C1132.25 310.623 1124.35 308.708 1122.05 306.406C1117.75 302.107 1094.15 303.362 1082.44 308.51C1076.55 311.095 1075.86 308.837 1075.86 287.131C1075.86 268.261 1074.18 260.934 1068.34 254.191C1060.11 244.711 1058.72 239.156 1064.57 239.156C1066.64 239.156 1068.34 236.615 1068.34 233.513C1068.34 230.411 1070.88 227.871 1073.98 227.871C1077.08 227.871 1079.62 226.434 1079.62 224.673C1079.62 222.911 1084.37 216.494 1090.18 210.413C1125.3 173.666 1132.41 88.6612 1101.17 79.1427C1096.55 77.7363 1089.91 74.0685 1086.42 71.0034C1080.32 65.656 1074.11 65.6197 1034.49 70.6444C1026.54 71.6525 1025.28 70.4814 1026.32 63.058C1027 58.2324 1023.06 45.3977 1017.57 34.5382C1008.2 16.0327 1006.23 14.4236 986.251 8.80265C965.006 2.8264 954.686 0.287355 946.798 0.121424L946.809 0.116443ZM967.975 21.3682C976.739 21.5695 980.685 24.3083 990.364 33.1734C1001.61 43.4732 1004.42 48.7547 1004.42 59.5674C1004.42 67.0033 1003.09 73.6479 1001.46 74.3372C997.539 75.9884 973.788 133.609 973.044 143.277C972.231 153.791 995.716 156.509 999.491 146.337C1002.96 136.999 1020.66 109.736 1024.3 108.138C1025.93 107.423 1031.97 102.881 1037.72 98.0432C1051.88 86.1326 1065.99 83.1495 1080.64 88.9795C1087.32 91.6387 1093.46 94.3296 1094.27 94.9617C1097.28 97.2913 1100.5 148.92 1097.63 148.92C1096 148.92 1094.67 152.296 1094.67 156.432C1094.67 160.568 1092.97 163.955 1090.9 163.955C1088.84 163.955 1087.14 166.495 1087.14 169.597C1087.14 172.699 1085.45 175.239 1083.38 175.239C1081.31 175.239 1079.63 177.311 1079.63 179.851C1079.63 192.512 1024.15 227.879 1004.28 227.879C999.16 227.879 999.785 240.531 1005.18 245.921C1007.66 248.403 1015.7 250.492 1023.04 250.554C1030.38 250.62 1039.09 252.732 1042.39 255.251C1051.39 262.12 1061.49 283.417 1057.05 286.161C1054.99 287.435 1053.31 295.151 1053.31 303.301C1053.31 311.451 1051.62 318.113 1049.55 318.113C1047.48 318.113 1045.79 319.917 1045.79 322.119C1045.79 324.32 1040.8 330.316 1034.7 335.443C1028.61 340.571 1022.67 347.785 1021.5 351.478C1019.02 359.28 990.513 374.515 978.388 374.515C973.826 374.515 966.665 372.678 962.471 370.434C958.279 368.191 950.777 367.378 945.799 368.628C938.771 370.392 936.746 373.407 936.746 382.112C936.746 388.276 938.44 393.311 940.508 393.311C953.575 393.311 931.953 444.729 911.106 463.228C905.563 468.148 889.844 475.577 876.179 479.741C849.043 488.011 840.584 488.458 819.056 482.748C797.852 477.124 792.873 467.203 798.123 441.063C801.148 426 804.428 419.181 809.407 417.602C813.268 416.376 816.42 413.908 816.42 412.119C816.42 410.33 819.91 407.753 824.167 406.402C829.424 404.733 831.531 401.336 830.744 395.808C829.237 385.232 813.57 383.194 797.538 391.483C783.076 398.962 759.96 396.103 750.52 385.671C742.768 377.106 738.509 346.561 744.548 342.828C746.855 341.403 748.745 332.716 748.745 323.532C748.745 314.348 750.439 306.839 752.507 306.839C754.574 306.839 756.268 305.028 756.268 302.822C756.268 300.617 760.522 293.228 765.725 286.406C774.905 274.371 775.856 274.058 797.687 275.674C819.489 277.287 820.182 277.058 820.182 268.161C820.182 260.674 816.896 257.722 802.331 252.159C792.509 248.408 782.609 243.478 780.335 241.204C768.053 228.921 765.354 176.895 776.425 165.825C779.544 162.706 783.25 156.355 784.66 151.714C787.388 142.728 809.563 121.406 822.063 115.757C853.405 101.589 870.458 102.071 883.873 117.499C888.942 123.329 895.098 126.384 900.268 125.649C907.937 124.558 908.557 122.403 908.747 96.2793C908.965 66.5994 912.737 47.3907 918.353 47.3907C920.197 47.3907 921.711 45.7073 921.711 43.6395C921.711 33.8778 938.788 23.4056 957.211 21.8779C961.592 21.5134 965.054 21.3024 967.975 21.3682ZM1110.73 335.72C1116.24 335.665 1121.94 336.16 1127.85 337.175C1150.7 341.091 1184.75 355.361 1184.85 361.062C1184.9 362.967 1187.84 367.762 1191.42 371.72C1202.47 383.922 1198.47 438.439 1186.54 438.439C1183.57 438.439 1181.15 440.132 1181.15 442.2C1181.15 444.268 1178.95 445.951 1176.26 445.951C1163.55 445.951 1151.1 455.574 1151.1 465.439C1151.04 478.033 1159.23 480.938 1179.27 475.437C1187.54 473.166 1204.11 470.527 1216.09 469.572C1235.24 468.045 1241.26 469.442 1265.96 481.175C1281.42 488.514 1294.62 496.705 1295.31 499.377C1296 502.05 1298.33 509.639 1300.49 516.24C1304.75 529.294 1299.84 562.515 1293.64 562.515C1291.74 562.515 1290.15 564.627 1290.07 567.212C1289.88 574.753 1274.81 583.56 1253.32 588.687C1234.06 593.28 1233.42 593.856 1234.52 605.241C1235.61 616.405 1236.48 617.01 1250.7 616.547C1258.98 616.281 1272.51 615.112 1280.79 613.944C1306.32 610.339 1322.54 617.517 1331.39 636.343C1340.19 655.074 1341.08 668.087 1334.36 679.993C1325.58 695.569 1319.65 697.635 1283.37 697.76L1248.35 697.879L1249.53 710.099C1250.48 720.009 1252.49 722.488 1260.11 723.232C1308.85 727.993 1342.83 739.958 1342.83 752.347C1342.83 755.479 1344.23 758.043 1345.95 758.043C1347.67 758.043 1350.83 763.734 1352.97 770.697C1355.86 780.14 1355.58 786.383 1351.85 795.253C1342.63 817.177 1338.17 821.309 1327.84 817.483C1322.7 815.582 1315.59 814.78 1312.04 815.708C1308.49 816.636 1304.96 815.513 1304.19 813.222C1303.3 810.537 1288.85 809.016 1263.59 808.929L1224.38 808.793V792.547C1224.38 781.418 1222.31 774.768 1217.81 771.454C1214.19 768.791 1211.23 764.684 1211.23 762.327C1211.23 759.97 1207.84 758.033 1203.71 758.033C1199.57 758.033 1196.18 756.614 1196.18 754.878C1196.18 750.051 1178.35 742.999 1166.16 742.999C1160.17 742.999 1154.23 741.304 1152.95 739.237C1148.41 731.896 1083.38 739.149 1083.38 746.993C1083.38 748.481 1079.16 750.765 1073.99 752.062C1068.82 753.361 1064.58 756.08 1064.58 758.109C1064.58 760.137 1062.53 761.795 1060.03 761.795C1057.52 761.795 1051.92 766.239 1047.59 771.667C1037.92 783.796 1021.98 784.702 1011.73 773.707C1005.39 766.897 1005.04 764.524 1009.13 755.431C1011.71 749.682 1016.85 741.926 1020.55 738.195C1030.92 727.743 1035.35 713.421 1037 684.854C1038.97 650.827 1034.41 640.88 1009.14 624.107C991.65 612.499 984.293 610.031 962.556 608.477C945.133 607.229 936.746 607.971 936.746 610.772C936.746 613.054 934.4 614.026 931.54 612.928C928.68 611.831 920.397 613.418 913.125 616.457L899.896 621.982L893.468 605.13C889.929 595.863 884.685 587.382 881.811 586.279C878.939 585.177 876.583 581.828 876.583 578.841C876.583 575.855 870.342 570.807 862.717 567.621C835.976 556.447 776.287 571.511 754.1 595.035C747.566 601.964 740.215 607.637 737.769 607.637C735.322 607.637 730.934 613.358 728.014 620.346C722.286 634.085 712.248 640.324 706.008 634.085C703.873 631.949 699.074 630.196 695.351 630.196C691.628 630.196 688.582 628.308 688.582 625.998C688.582 623.657 685.271 622.668 681.07 623.767C676.935 624.848 672.54 624.099 671.305 622.099C670.069 620.097 657.934 618.959 644.337 619.57C627.226 620.337 619.14 619.254 618.07 616.042C617.218 613.488 614.517 611.399 612.077 611.399C606.7 611.399 596.843 576.327 597.807 560.64C598.187 554.436 598.879 543.438 599.358 536.2C600.297 521.917 612.954 506.661 632.064 496.779C645.948 489.603 657.437 489.587 671.124 496.724C678.298 500.466 686.772 501.53 696.69 499.944C709.067 497.965 711.343 496.253 710.397 489.626C709.615 484.147 704.709 480.193 694.586 476.886C672.456 469.656 666.024 460.029 666.024 434.107C666.024 421.957 667.707 412.122 669.785 412.122C671.853 412.122 673.547 408.284 673.547 403.6C673.547 385 697.229 351.878 715.487 344.936C724.885 341.361 724.965 341.448 724.965 362.628C724.965 374.336 726.271 387.867 727.823 392.688C731.234 403.289 761.714 423.396 774.364 423.396C782.089 423.396 783.062 424.674 780.792 431.854C776.131 446.604 775.362 462.487 778.71 475.048C783.828 494.255 797.906 504.224 827.949 509.922C860.553 516.105 925.462 499.273 925.462 484.633C925.462 481.977 928.002 479.798 931.104 479.798C934.206 479.798 936.746 477.257 936.746 474.155C936.746 471.053 938.356 468.524 940.327 468.524C944.99 468.524 959.617 436.534 962.684 419.635C964.986 406.941 965.788 406.387 985.253 404.005C996.352 402.646 1006.47 400.116 1007.75 398.373C1009.02 396.63 1016.65 391.848 1024.7 387.747C1032.74 383.646 1044.46 373.885 1050.75 366.059C1066.83 346.051 1086.87 335.917 1110.73 335.72ZM834.643 596.358C854.495 596.358 865.07 604.039 872.62 623.964C876.127 633.219 875.396 636.162 867.222 645.875C856.563 658.543 855.216 668.503 863.248 675.17C870.285 681.01 882.46 677.309 899.142 664.267C922.416 646.071 929.697 643.679 962.45 643.516C991.504 643.369 994.339 644.049 1001.19 652.76C1005.26 657.93 1010.62 664.693 1013.09 667.795C1019.35 675.636 1011.43 727.958 1003.99 727.958C1002.16 727.958 1000.67 730.498 1000.67 733.6C1000.67 736.702 999.093 739.232 997.164 739.232C995.235 739.232 992.61 742.533 991.331 746.564C988.51 755.449 977.235 759.539 958.37 758.507C944.967 757.774 944.269 758.306 944.269 769.281C944.269 775.634 946.381 781.405 948.966 782.118C951.551 782.826 962.758 785.524 973.872 788.11C996.744 793.431 1005.35 800.427 1012.14 819.202C1016.57 831.463 1016.05 833.57 1003.4 854.362C996.001 866.528 985.164 881.009 979.323 886.548C963.75 901.317 930.67 916.925 921.264 913.94C912.535 911.169 899.142 898.97 899.142 893.794C899.142 889.216 889.49 885.878 876.275 885.878C863.317 885.878 861.709 894.123 871.844 908.542C876.699 915.448 878.184 924.256 877.635 942.811C876.65 976.048 864.979 990.1 832.635 996.98C820.62 999.536 808.249 1002.4 805.146 1003.34C799.604 1005.01 784.28 1003.85 769.391 1000.62C765.235 999.727 755.931 993.416 748.713 986.61C737.855 976.371 735.618 971.637 735.782 959.195C735.89 950.923 737.299 941.294 738.916 937.795C743.988 926.826 740.008 917.84 730.076 917.84C723.359 917.84 718.99 921.494 713.701 931.536C699.787 957.96 671.71 960.907 632.096 940.091C607.939 927.397 587.064 906.093 587.064 894.134C587.064 891.66 585.422 889.639 583.419 889.639C581.413 889.639 580.821 886.925 582.091 883.614C583.362 880.302 582.037 876.128 579.148 874.327C572.456 870.152 578.397 859.323 590.347 853.915C594.917 851.848 599.578 846.489 600.707 842.005C602.34 835.524 606.553 833.335 621.236 831.315C634.935 829.431 639.727 827.156 639.651 822.538C639.536 810.434 633.093 806.478 607.688 802.881C593.564 800.88 579.769 797.382 577.023 795.102C574.276 792.823 572.028 784.399 572.028 776.38C572.028 768.362 570.403 761.79 568.416 761.79C562.368 761.79 566.742 702.623 573.272 696.092C576.386 692.979 579.968 685.729 581.23 679.983C582.808 672.801 587.303 668.012 595.628 664.66C602.291 661.978 610.562 658.285 614 656.447C626.615 649.706 658.419 648.04 680.602 652.962L702.789 657.881L700.802 679.76C698.946 700.222 699.337 701.638 706.858 701.638C712.904 701.638 714.902 699.33 714.902 692.352C714.902 681.704 728.987 652.76 734.167 652.76C736.07 652.76 739.366 648.944 741.488 644.291C746.159 634.043 778.478 611.237 800.524 602.628C809.356 599.18 824.706 596.358 834.643 596.358ZM504.151 673.926C511.718 674.057 519.068 674.742 525.945 676.009C547.4 679.962 549.313 681.075 546.93 688.165C545.488 692.455 544.11 706.114 543.86 718.522C543.609 730.931 542.08 743.968 540.459 747.488C538.843 751.007 538.771 755.907 540.301 758.379C541.828 760.852 543.457 769.752 543.935 778.154C544.409 786.554 546.697 794.05 549.014 794.826C551.332 795.598 553.222 799.385 553.222 803.231C553.222 807.078 557.038 812.906 561.691 816.183C568.873 821.242 569.294 822.683 564.507 825.736C561.405 827.715 552.101 829.426 543.829 829.551C517.626 829.942 494.783 838.089 482.232 851.525C475.782 858.43 470.501 865.644 470.501 867.559C470.501 869.473 467.981 872.008 464.901 873.191C456.676 876.346 451.271 901.066 450.503 938.932L449.823 972.329L436.669 972.924C429.431 973.272 420.973 973.299 417.872 973C398.257 971.108 380.267 985.087 380.267 1002.22C380.267 1008.3 378.418 1014.42 376.155 1015.82C373.895 1017.22 372.812 1022.39 373.754 1027.32C374.696 1032.25 374.004 1036.28 372.224 1036.28C363.027 1036.28 375.085 1101.82 387.089 1117.08C393.5 1125.23 394.173 1128.45 390.638 1134.11C388.244 1137.94 383.245 1141.87 379.534 1142.84C375.823 1143.81 371.645 1147.73 370.247 1151.54V1151.49C368.851 1155.31 363.967 1162.26 359.388 1166.96C352.481 1174.04 350.689 1174.53 348.868 1169.79C347.66 1166.64 344.076 1164.07 340.909 1164.07C337.742 1164.07 335.15 1162.44 335.15 1160.46C335.15 1158.47 327.959 1154.81 319.169 1152.31C310.38 1149.81 301.582 1146.36 299.618 1144.64C297.653 1142.92 291.65 1141.5 286.272 1141.5C280.895 1141.5 272.35 1139.5 267.284 1137.04C248.205 1127.79 221.947 1055.12 235.768 1049.81C238.363 1048.82 242.559 1042.28 245.087 1035.29C247.781 1027.84 253.75 1020.81 259.516 1018.31C282.962 1008.13 292.888 1005.16 308.31 1003.68C323.71 1002.2 335.15 995.704 335.15 988.449C335.15 986.689 331.489 982.756 327.011 979.714C296.19 958.776 274.671 919.193 276.071 886.016C276.512 875.571 277.937 867.029 279.238 867.028C280.538 867.028 283.753 861.82 286.389 855.457C293.911 837.296 303.746 833.355 350.579 829.732C409.303 825.189 415.35 821.868 399.075 803.104C394.939 798.335 391.552 791.683 391.552 788.323C391.552 784.965 388.79 778.272 385.41 773.447C380.067 765.818 379.868 761.98 383.88 744.057C386.416 732.721 391.29 720.5 394.718 716.897C398.146 713.293 403.439 706.68 406.481 702.202C409.523 697.726 413.959 694.063 416.342 694.063C418.724 694.063 428.093 690.783 437.157 686.773C456.81 678.079 481.463 673.509 504.163 673.906L504.151 673.926ZM1125.1 772.267C1139.51 772.267 1169.55 776.532 1179.27 780.98C1185.47 783.818 1192.5 788.659 1194.88 791.734C1200.69 799.24 1196.69 821.726 1187.86 831.198C1183.42 835.965 1181.22 842.99 1181.91 850.111C1183.59 867.14 1196.34 867.17 1213.31 850.198L1226.91 836.597L1260.43 837.66C1278.86 838.245 1293.95 840.031 1293.95 841.624C1293.95 843.217 1299.66 844.514 1306.64 844.514C1318.22 844.514 1320.01 846.091 1326.92 862.376C1331.09 872.199 1335.61 887.068 1336.98 895.412C1339.06 908.218 1338 912.274 1330.11 921.455C1322.18 930.683 1319.87 931.583 1314.87 927.438C1311.63 924.75 1308.99 918.91 1308.99 914.453C1308.99 902.323 1291.63 888.602 1264.19 879.037C1247.04 873.059 1206.87 879.586 1186.12 891.724C1165.49 903.794 1156.31 916.021 1148.56 941.772C1145.05 953.422 1139.98 965.407 1137.28 968.41C1133.02 973.136 1131.33 972.761 1124.65 965.595C1116.22 956.543 1116.89 956.728 1087.14 955.734C1064.76 954.986 1056.13 957.737 1042.84 969.844C1033.62 978.253 1017.38 1025.43 1020.72 1034.14C1023.57 1041.56 1014.57 1044.02 999.969 1039.84C986.071 1035.85 965.295 1035.27 953.12 1038.54C948.684 1039.73 938.746 1049.87 931.04 1061.06C917.818 1080.25 916.139 1081.39 901.15 1081.39C881.994 1081.39 862.247 1090.55 857.648 1101.55C855.798 1105.98 852.421 1116.95 850.146 1125.95C846.489 1140.42 845.068 1141.99 837.799 1139.62C819.071 1133.51 800.324 1133.43 784.745 1139.38C754.214 1151.04 734.036 1171.13 717.431 1206.42C710.916 1220.26 701.588 1224.46 694.033 1216.97C682.417 1205.44 605.295 1200.16 581.379 1209.25C572.624 1212.58 572.041 1212.05 571.965 1200.69C571.894 1185.06 564.309 1163.38 555.994 1155.06C552.406 1151.47 549.47 1146.41 549.47 1143.82C549.47 1137.53 535.547 1125.28 519.75 1117.66C505.371 1110.72 461.317 1109.24 441.13 1115.03C430.621 1118.05 427.751 1117.42 422.354 1110.9C418.851 1106.67 411.166 1097.94 405.279 1091.51C396.435 1081.85 394.952 1077.55 396.704 1066.75C397.871 1059.56 397.237 1051.77 395.301 1049.44C391.178 1044.47 394.779 1017.48 399.562 1017.48C401.36 1017.48 402.824 1015.67 402.824 1013.45C402.824 994.177 447.417 990.76 473.517 1008.03C482.2 1013.78 489.307 1019.73 489.307 1021.26C489.307 1025.85 512.978 1029.15 517.008 1025.12C522.144 1019.98 513.471 1004.57 501.994 998.427C492.589 993.395 484.84 980.797 475.77 955.818C471.362 943.68 471.242 937.29 475.079 918.713C477.629 906.371 481.866 895.445 484.504 894.433C487.143 893.42 489.307 890.223 489.307 887.324C489.307 884.424 493.959 877.246 499.646 871.376C510.483 860.191 529.09 855.105 546.782 858.486C556.22 860.292 556.982 861.805 556.982 878.792C556.982 888.891 558.676 897.154 560.744 897.154C562.812 897.154 564.505 902.175 564.505 908.311C564.505 923.047 585.329 943.867 613.065 956.86C630.404 964.983 640.653 966.915 671.825 967.963L709.589 969.239L714.7 980.757C725.137 1004.34 736.528 1011.26 775.065 1017.43C800.516 1021.5 806.666 1021.13 838.107 1013.74C868.604 1006.56 874.123 1003.99 882.427 993.104C887.646 986.264 892.481 974.374 893.17 966.688C893.86 959 895.912 951.634 897.728 950.314C899.544 948.995 902.893 944.537 905.177 940.4C908.045 935.206 914.605 932.254 926.375 930.869C935.748 929.766 945.722 927.003 948.541 924.727C951.36 922.449 959.265 919.389 966.105 917.926C974.425 916.146 987.001 906.807 1004.09 889.716C1028.2 865.609 1030.87 860.903 1036.86 832.113C1038.7 823.287 1074.4 789.675 1089.6 782.459C1096.11 779.365 1104.99 776.838 1109.33 776.838C1113.67 776.838 1117.22 775.504 1117.22 773.873C1117.22 772.762 1120.29 772.272 1125.1 772.267ZM1239.58 909.392C1257.42 908.892 1272.69 914.513 1284.4 926.224C1293.38 935.212 1294.2 938.42 1293.19 960.704C1292.25 981.296 1293.09 985.481 1298.41 986.567C1301.91 987.279 1307.83 984.571 1311.58 980.554C1322.04 969.332 1331.55 956.113 1331.55 952.788C1331.55 951.141 1334.09 949.792 1337.19 949.792C1340.29 949.792 1342.83 948.33 1342.83 946.53C1342.83 940.585 1378.12 932.967 1403.81 933.364C1438.2 933.903 1467.93 948.02 1476.57 967.908C1479.87 975.527 1484.16 984.741 1486.09 988.384C1491.45 998.52 1477.01 1051.32 1468.88 1051.32C1466.65 1051.32 1459.1 1056.54 1452.12 1062.92C1442.06 1072.11 1437.37 1074 1429.65 1071.97C1424.29 1070.56 1411.75 1068.54 1401.78 1067.49L1383.65 1065.59L1384.87 1077.82C1385.94 1088.71 1387.91 1090.62 1402.98 1095.16C1423.81 1101.44 1430.17 1106.22 1438.13 1121.63C1447.62 1140 1446.03 1156.92 1433.89 1166.79C1428.27 1171.36 1417.74 1180.02 1410.51 1186.01C1389.34 1203.55 1374.98 1209.24 1351.88 1209.24C1322.42 1209.24 1301.28 1198.37 1292.84 1178.87C1287.84 1167.34 1284.39 1164.11 1277.04 1164.11C1269.57 1164.11 1267.63 1166.01 1267.63 1173.27C1267.63 1178.31 1269.49 1187.19 1271.76 1193.01C1277.08 1206.62 1277.08 1238.18 1271.76 1251.79C1269.49 1257.61 1267.58 1263.52 1267.5 1264.94C1267.11 1273.51 1246.37 1288.89 1225.29 1296.24L1201.04 1304.71L1189.4 1295.51C1175.12 1284.22 1173.63 1280.21 1171.99 1248.52C1170.72 1224.12 1167.1 1216.96 1155.94 1216.82C1153.46 1216.76 1149.77 1222.71 1147.76 1229.99C1139.31 1260.59 1127.69 1273.77 1092.8 1292.32C1076.24 1301.13 1064.86 1302.6 1044.81 1298.53C1025.61 1294.63 1016.72 1285.73 1008.85 1262.53C1003.17 1245.77 1010.36 1216.76 1020.18 1216.76C1027.24 1216.76 1033.31 1201.39 1029 1194.42C1025.75 1189.16 1014.63 1189.37 1002.47 1194.92C994.239 1198.67 990.388 1198.2 978.835 1192.09C960.751 1182.53 944.269 1166.76 944.269 1159.01C944.269 1155.62 942.781 1152.84 940.965 1152.84C939.148 1152.84 935.917 1145.99 933.792 1137.61C930.379 1124.17 930.853 1121.54 937.787 1115.08C942.194 1110.97 946.08 1102.04 946.66 1094.71C947.225 1087.52 950.495 1077.37 953.928 1072.13C959.649 1063.4 962.424 1062.6 987.187 1062.6C1014.46 1062.6 1023.13 1066.16 1023.34 1077.45C1023.51 1087.42 1052.5 1111.47 1064.34 1111.47C1072.25 1111.47 1068.12 1098.45 1056.37 1086.32C1046.19 1075.82 1044.14 1070.53 1042.74 1051.13C1041.51 1034.22 1042.91 1024.22 1048.09 1012.55C1060.64 984.31 1074.03 976.866 1099.59 983.923C1112.31 987.434 1132.27 1001.87 1132.27 1007.56C1132.27 1008.88 1135.83 1013.53 1140.2 1017.89C1147.13 1024.83 1149.27 1025.22 1157.12 1021.02C1167.36 1015.54 1168.29 1010.63 1161 1000.66C1155.32 992.894 1158.48 971.592 1168.2 952.035C1171.18 946.03 1173.63 938.894 1173.63 936.171C1173.63 933.447 1182.66 926.945 1193.71 921.72C1210.26 913.888 1225.7 909.784 1239.58 909.392ZM1532.7 1058.95C1555.62 1058.95 1580.98 1071.81 1582.78 1084.31C1583.44 1088.91 1585.62 1092.68 1587.61 1092.68C1589.87 1092.68 1589.77 1095.46 1587.36 1099.95C1585.22 1103.95 1583.46 1110.02 1583.46 1113.45C1583.46 1119.02 1577.91 1126.38 1556.2 1149.57C1552.59 1153.43 1549.63 1160.49 1549.63 1165.25C1549.63 1173.79 1550.31 1173.9 1590.15 1173.71C1643.83 1173.45 1670.45 1184.27 1683.56 1211.65C1688.95 1222.9 1688.64 1224.65 1677.24 1248.01C1668.67 1265.59 1663.69 1271.96 1659.71 1270.43C1656.65 1269.26 1652.88 1270.34 1651.35 1272.82C1649.28 1276.17 1644.93 1275.22 1634.7 1269.18C1615.41 1257.8 1554.25 1256.45 1534.93 1266.98C1510.56 1280.26 1478.18 1311.74 1478.18 1322.15C1478.18 1329.17 1465.21 1324.32 1463.75 1316.75C1462.09 1308.13 1430.75 1277.57 1418.72 1272.82C1401.31 1265.96 1350.34 1272.26 1350.34 1281.27C1350.34 1283.01 1348.23 1284.44 1345.64 1284.44C1341.23 1284.44 1320.26 1307.7 1320.26 1312.6C1320.26 1313.83 1316.04 1319.41 1310.87 1324.99C1305.7 1330.56 1301.17 1337.67 1300.81 1340.8C1300.46 1343.92 1299.8 1349.01 1299.34 1352.11C1298.87 1355.22 1298.32 1361.51 1298.1 1366.09L1297.7 1374.41L1280.48 1367.02C1260.11 1358.29 1228.76 1357.38 1210.74 1364.99C1197.43 1370.62 1173.71 1393.35 1166.54 1407.35L1162.32 1415.59L1146.35 1406.45C1137.57 1401.43 1125.3 1397.28 1119.08 1397.28C1103.7 1397.22 1082.67 1403.58 1079.09 1409.38C1076.8 1413.08 1072.98 1412.48 1061.91 1406.67C1054.07 1402.55 1046.76 1397.97 1045.66 1396.49C1039.53 1388.24 996.209 1373.76 972.215 1371.94C942.837 1369.72 928.716 1374.21 908.503 1392.2C902.32 1397.71 891.9 1407.21 885.349 1413.32L873.438 1424.43L866.553 1404.53C859.044 1382.85 840.992 1366.67 813.743 1357.19C792.123 1349.67 778.187 1354.21 753.07 1376.94C740.73 1388.1 729.215 1397.21 727.472 1397.13C725.729 1397.08 718.605 1392.31 711.651 1386.54L699.006 1376.05L710.716 1366.2C717.153 1360.79 722.414 1354.74 722.414 1352.76C722.414 1350.78 724.955 1348.18 728.057 1346.99C731.159 1345.8 733.699 1342.93 733.699 1340.6C733.699 1338.27 736.916 1331.84 740.85 1326.31C750.561 1312.67 750.502 1281.67 740.713 1256.83C731.434 1233.29 733.152 1222.63 750.427 1196.61C760.437 1181.52 767.931 1174.99 782.474 1168.64C803.899 1159.28 812.022 1158.51 825.317 1164.57C834.921 1168.95 838.841 1177.65 838.928 1194.83C839.01 1210.59 842.815 1216.75 852.464 1216.75C863.157 1216.75 867.838 1203.51 862.719 1187.68C858.025 1173.16 859.227 1144.21 864.6 1142.41C867.052 1141.6 869.062 1138.07 869.062 1134.56C869.062 1125.77 890.526 1107.71 900.983 1107.71C908.246 1107.71 909.948 1110.26 912.044 1124.23C913.41 1133.32 913.48 1144.93 912.201 1150.02C910.699 1156.01 911.961 1161.36 915.782 1165.19C919.033 1168.44 921.7 1172.49 921.7 1174.2C921.7 1178.65 942.809 1197.96 947.68 1197.96C949.934 1197.96 951.782 1199.51 951.782 1201.41C951.782 1203.31 959.871 1207.56 969.76 1210.84L987.739 1216.82L986.283 1242.53C984.052 1282.04 994.763 1298.8 1028.5 1308.61C1060.33 1317.86 1083.75 1316.33 1109.53 1303.32C1121.73 1297.16 1132.78 1290.39 1134.09 1288.27C1137.58 1282.62 1154.82 1283.58 1154.82 1289.42C1154.82 1296 1169.28 1309.32 1181.38 1313.9C1187.1 1316.07 1201.82 1316.37 1217.59 1314.64C1238.34 1312.36 1247.99 1309.11 1261.51 1299.8C1271.24 1293.11 1279.86 1283.82 1281.16 1278.64C1282.43 1273.55 1284.98 1269.39 1286.82 1269.39C1288.67 1269.39 1290.18 1266.02 1290.18 1261.88C1290.18 1257.74 1291.87 1254.36 1293.94 1254.36C1296.01 1254.36 1297.7 1248.43 1297.7 1241.19C1297.7 1233.95 1299.38 1228.04 1301.45 1228.04C1303.52 1228.04 1305.21 1225.54 1305.21 1222.49C1305.21 1218.09 1307.21 1217.7 1314.86 1220.61C1335.62 1228.5 1402.98 1222.55 1402.98 1212.82C1402.98 1210.85 1404.77 1209.24 1406.97 1209.24C1409.16 1209.24 1418.4 1203.74 1427.5 1197.02C1436.59 1190.3 1449.97 1180.57 1457.24 1175.4C1468.7 1167.24 1470.46 1163.91 1470.55 1150.24C1470.61 1141.57 1469.12 1133.53 1467.25 1132.37C1465.38 1131.21 1464.66 1127.14 1465.66 1123.31C1466.66 1119.48 1464.81 1113.68 1461.55 1110.42C1454.03 1102.9 1454.22 1100.29 1463.06 1089.69C1475.4 1074.89 1511.56 1058.95 1532.7 1058.95ZM475.727 1138.48C490.032 1138.13 505.777 1141.3 508.965 1146.99C510.763 1150.21 514.091 1152.84 516.35 1152.84C522.948 1152.84 541.505 1174.22 544.189 1184.92C547.087 1196.46 543.297 1228.59 538.685 1231.6C536.926 1232.74 529.332 1238.63 521.801 1244.69C506.903 1256.67 502.75 1273.22 514.681 1273.07C523.332 1272.96 553.253 1259.34 553.253 1255.48C553.253 1253.83 559.239 1248.42 566.524 1243.45C578.004 1235.64 584.396 1234.38 614.436 1234.05C653.312 1233.63 677.638 1240.58 692.439 1256.33C697.247 1261.45 702.997 1265.66 705.222 1265.74C713.107 1265.93 723.431 1295.5 721.522 1312.44C720.094 1325.1 716.444 1331.68 704.489 1343.16C686.098 1360.81 676.02 1367.16 666.385 1367.16C652.786 1367.16 647.227 1371.54 647.227 1382.27C647.227 1391.62 648.909 1393.1 662.05 1395.32C670.203 1396.69 678.874 1400.23 681.314 1403.17C683.755 1406.11 687.665 1408.51 690.017 1408.51C695.817 1408.51 705.376 1424 704.234 1431.54C703.695 1435.12 706.719 1438.52 711.544 1439.79C719.234 1441.8 719.622 1443.47 717.378 1464.94C714.795 1489.65 695.539 1534.62 679.593 1553.17C670.987 1563.19 620.907 1584.11 620.907 1577.69C620.907 1576.18 614.082 1574.03 605.744 1572.92C590.792 1570.91 581.76 1563.58 558.289 1534.41C552.83 1527.62 547.443 1524.85 541.405 1525.71C526.564 1527.81 528.184 1541.23 545.496 1559.6C570.965 1586.63 583.963 1620.39 575.376 1637.22C568.7 1650.31 554.289 1664.2 547.387 1664.2C544.392 1664.2 541.947 1665.88 541.947 1667.95C541.947 1670.02 536.108 1671.71 528.973 1671.71C521.837 1671.71 514.646 1673.92 512.992 1676.61C509.665 1682.03 479.532 1694.27 469.511 1694.27C466.003 1694.27 456.271 1691.53 447.877 1688.17C430.997 1681.42 421.621 1667.56 421.621 1649.35C421.621 1643.04 419.938 1637.87 417.87 1637.87C415.802 1637.87 414.109 1635.34 414.109 1632.24C414.109 1624.14 400.382 1611.55 391.55 1611.55C380.683 1611.55 381.697 1628.86 394.005 1653.36C403.224 1671.72 403.637 1674.53 399.488 1690.33C397.018 1699.74 392.11 1709.49 388.575 1712.01C385.041 1714.52 380.107 1718.33 377.609 1720.47C375.111 1722.6 371.296 1724.35 369.141 1724.35C366.985 1724.35 365.23 1725.82 365.23 1727.61C365.23 1729.39 356.345 1733.48 345.488 1736.69C316.919 1745.15 303.562 1746.89 297.364 1742.97C294.359 1741.07 287.587 1739.45 282.307 1739.45C266.668 1739.36 243.096 1719.28 235.607 1699.67C226.309 1675.32 233.392 1640.83 250.621 1626.53C253.68 1623.99 256.189 1616.2 256.189 1609.21C256.189 1599.02 254.702 1596.52 248.666 1596.52C244.53 1596.52 241.143 1597.89 241.143 1599.57C241.143 1601.24 238.097 1605.9 234.375 1609.9C230.65 1613.91 226.506 1620.08 225.162 1623.6C218.304 1641.57 152.894 1655.36 122.358 1645.28C107.788 1640.47 90.7465 1626.36 90.7465 1619.1C90.7465 1616.85 87.5045 1608.66 83.5423 1600.89C77.2891 1588.64 76.9132 1584.62 80.7052 1570.41C86.3082 1549.42 101.831 1534.47 118.033 1534.47C128.537 1534.47 130.386 1533.04 131.411 1524.13C132.38 1515.71 130.65 1513.09 122.018 1509.96C99.8121 1501.91 60.665 1478.38 60.665 1473.09C60.665 1471.67 54.32 1463.75 46.5647 1455.48C27.6491 1435.31 23.6087 1424.99 22.7524 1394.69C22.1665 1373.92 24.163 1363.67 33.2294 1340.84C42.9247 1316.43 46.402 1311.63 59.1243 1305.12C67.2082 1300.98 74.6662 1296.53 75.7005 1295.23C78.9293 1291.18 109.412 1289.69 110.691 1293.52C111.36 1295.53 121.457 1297.26 133.122 1297.38C153.632 1297.59 154.589 1298.06 162.258 1311.69C170.081 1325.61 178.207 1329.57 182.999 1321.82C186.639 1315.93 182.231 1302.06 173.521 1292.02C169.3 1287.15 166.585 1280.49 167.496 1277.22C168.408 1273.95 170.244 1264.25 171.576 1255.66C172.91 1247.08 178.115 1234.48 183.137 1227.68C188.159 1220.87 192.265 1213.09 192.265 1210.39C192.265 1207.69 193.684 1205.48 195.421 1205.48C197.157 1205.48 200.34 1201.62 202.487 1196.9C204.635 1192.19 213.418 1183.46 222.006 1177.51C234.817 1168.63 241.142 1166.8 257.241 1167.31C285.162 1168.19 313.844 1180.88 332.535 1200.6C355.257 1224.58 355.994 1225.49 358.738 1232.73C360.206 1236.61 365.137 1239.31 370.745 1239.31C378.864 1239.31 380.266 1237.62 380.266 1227.77C380.266 1221.42 377.602 1213.56 374.347 1210.3C371.092 1207.05 369.991 1203.36 371.893 1202.11C373.795 1200.86 376.419 1195.45 377.726 1190.1C383.345 1167.11 416.69 1142.32 435.615 1147.07C441.495 1148.54 448.543 1147.07 454.561 1143.14C459.082 1140.18 467.145 1138.7 475.727 1138.48ZM1579.31 1284.43C1605.37 1284.43 1634.94 1306.86 1649.99 1338.06L1658.21 1355.12L1643.4 1371.17C1619.05 1397.54 1624.98 1406.81 1656.61 1391.84C1680.7 1380.45 1696.3 1379.81 1717.34 1389.37C1735.78 1397.74 1750.51 1412.56 1760.43 1432.72C1770.14 1452.44 1769.62 1461.99 1757.85 1480.97C1739.54 1510.49 1736.19 1512.72 1713.14 1510.81C1693.32 1509.17 1692.51 1509.46 1692.51 1518.28C1692.51 1525.04 1696.41 1529.63 1707.29 1535.75C1737.4 1552.67 1772.64 1600.18 1778.55 1631.82C1781.67 1648.54 1777.62 1678.28 1771.58 1682.99C1770.25 1684.02 1766.94 1690.37 1764.23 1697.09C1761.51 1703.81 1756.95 1709.31 1754.1 1709.31C1751.25 1709.31 1748.91 1710.64 1748.91 1712.26C1748.91 1720.25 1726.12 1726.72 1694.39 1727.72C1664.45 1728.67 1659.36 1727.85 1650.21 1720.66C1644.52 1716.18 1639.83 1709.69 1639.76 1706.22C1639.37 1686.08 1612.72 1679.48 1610.48 1698.97C1609.83 1704.66 1611.1 1709.31 1613.31 1709.31C1615.51 1709.31 1617.31 1712.02 1617.31 1715.32C1617.31 1718.63 1619.76 1726.67 1622.75 1733.18C1625.75 1739.7 1630.73 1757.63 1633.84 1773.03C1640.78 1807.47 1636.46 1837.16 1624.52 1837.16C1620.55 1837.16 1617.31 1839.63 1617.31 1842.66C1617.31 1852.16 1601.98 1856.94 1571.52 1856.94C1559.47 1856.94 1545.64 1855.8 1535.97 1855.44C1533.26 1852.57 1528.49 1849.45 1522.02 1846.98C1504.81 1840.4 1497.96 1831.32 1496.19 1812.72C1495.41 1804.54 1492.94 1801.13 1487.19 1800.31C1482.83 1799.68 1477.45 1795.45 1475.25 1790.9C1469.72 1779.51 1467.27 1761.96 1471.2 1761.96C1472.98 1761.96 1474.43 1757.72 1474.43 1752.55C1474.43 1745.15 1472.53 1743.15 1465.44 1743.15C1460.49 1743.15 1455.41 1745.83 1454.16 1749.1C1447.36 1766.82 1456.37 1799.02 1470.62 1807.92C1476.64 1811.68 1475.37 1813.77 1458.16 1828.45C1447.62 1837.45 1432.17 1846.65 1423.82 1848.91C1403 1854.53 1363.62 1849.98 1344.99 1839.79C1328.96 1831.03 1309 1812.91 1309 1807.13C1309 1805.24 1306.79 1802.33 1304.1 1800.68C1290.2 1792.16 1279.45 1726.07 1290.19 1715.33C1292.26 1713.27 1293.95 1709.37 1293.95 1706.68C1293.95 1697.8 1282.63 1701.59 1269.27 1714.95C1262.03 1722.19 1253.2 1728.16 1249.65 1728.23C1246.1 1728.3 1239.91 1730.84 1235.89 1733.87C1225.81 1741.5 1211.47 1740.79 1186.44 1731.42C1160.74 1721.81 1139.2 1703.19 1128.73 1681.56C1114.12 1651.38 1120.09 1608.17 1141.88 1586.38C1144.87 1583.39 1147.32 1579.56 1147.32 1577.88C1147.32 1571.89 1163.97 1570.49 1170.03 1575.98C1173.38 1579 1178.94 1581.47 1182.39 1581.47C1191.74 1581.47 1190.69 1563.82 1181.16 1560.79C1177.02 1559.48 1173.64 1556.52 1173.64 1554.2C1173.64 1551.89 1170.38 1546.51 1166.41 1542.24C1162.44 1537.97 1157.08 1524.13 1154.49 1511.49C1150.1 1490.07 1150.39 1487.03 1158.6 1466.79C1163.86 1453.83 1170.18 1444.34 1174.28 1443.27C1178.06 1442.28 1181.16 1439.13 1181.16 1436.27C1181.16 1433.41 1182.84 1431.07 1184.91 1431.07C1186.98 1431.07 1188.67 1426.12 1188.67 1420.07C1188.67 1401.66 1206.23 1389.67 1233.1 1389.75C1250.27 1389.8 1281.65 1404.09 1303.03 1421.61C1320.17 1435.65 1327.27 1437.61 1334.56 1430.32C1339.61 1425.27 1340.77 1404.75 1336.01 1404.75C1331.09 1404.75 1320.27 1379.15 1320.27 1367.49C1320.27 1335.96 1354.57 1299.47 1384.21 1299.47C1404.45 1299.47 1444.25 1332.45 1449.57 1353.62C1452.92 1366.99 1462.1 1374.67 1474.71 1374.67C1485.04 1374.67 1485.71 1373.76 1485.71 1359.64C1485.71 1351.37 1487.41 1344.59 1489.48 1344.59C1491.54 1344.59 1493.24 1342.58 1493.24 1340.13C1493.24 1334.67 1509.12 1310.86 1512.78 1310.78C1514.22 1310.78 1519.54 1306.93 1524.59 1302.25C1534.32 1293.24 1561.34 1284.43 1579.31 1284.43ZM786.743 1377.4C798.758 1377.48 812.352 1386.39 828.842 1404.73C843.304 1420.82 846.397 1427.02 848.563 1444.36C849.977 1455.66 852.792 1464.92 854.822 1464.92C856.852 1464.92 873.15 1449.79 891.045 1431.3C929.175 1391.9 939.624 1387.75 967.996 1400.67C977.466 1404.99 987.927 1408.51 991.246 1408.51C1006.31 1408.51 1049.55 1441.02 1049.55 1452.34C1049.55 1454.92 1051.66 1458.38 1054.25 1460.03C1056.83 1461.68 1061.9 1469.43 1065.52 1477.25C1071.77 1490.77 1081.2 1498.43 1085.86 1493.78C1087.04 1492.6 1088.74 1478.45 1089.64 1462.33C1090.94 1439.1 1092.93 1431.28 1099.27 1424.54C1107.52 1415.76 1117.22 1413.2 1117.22 1419.8C1117.22 1421.87 1120.41 1423.56 1124.29 1423.56C1128.17 1423.56 1133.45 1426.09 1136.02 1429.19C1138.6 1432.29 1143.08 1434.83 1145.97 1434.83C1149.99 1434.83 1149.27 1438.59 1142.91 1450.82C1133.18 1469.52 1131.48 1510.31 1139.44 1533.82C1143.9 1546.99 1143.65 1548.93 1136.41 1556.63C1132.07 1561.26 1128.51 1567.63 1128.51 1570.79C1128.51 1573.96 1125.12 1579.62 1120.99 1583.36C1116.85 1587.1 1113.46 1592.44 1113.46 1595.22C1113.46 1598 1112.12 1600.28 1110.47 1600.28C1103.98 1600.28 1097.3 1629.86 1097.3 1658.62C1097.3 1689.61 1102.12 1705.77 1118.47 1729.51C1129.28 1745.22 1157.22 1761.52 1178.06 1764.29C1192.67 1766.23 1196.18 1768.1 1196.18 1773.99C1196.18 1784.31 1187.49 1791.78 1165.91 1799.98H1165.86C1145.03 1807.89 1133.8 1808.94 1130.32 1803.31C1129.05 1801.25 1122.07 1799.55 1114.82 1799.55C1099.39 1799.55 1088.19 1794.29 1077.57 1782.04C1068.18 1771.21 1062.69 1771.09 1037.41 1781.14C1009.22 1792.34 980.927 1789.09 952.333 1771.37C928.743 1756.75 893.03 1724.35 882.904 1708.37C879.299 1702.69 874.471 1698.03 872.162 1698.03C865.039 1698.03 857.974 1710.59 857.849 1723.47C857.718 1736.89 843.609 1761.83 836.109 1761.91C833.523 1761.91 831.412 1764.26 831.412 1767.07C831.412 1772.42 806.354 1776.89 776.073 1776.96C759.974 1777.02 733.645 1767.08 733.645 1760.98C733.645 1754.53 691.071 1713.08 684.447 1713.08C676.737 1713.08 672.925 1722.34 674.13 1738.16C674.598 1744.3 671.819 1753.35 667.85 1758.61C646.211 1787.3 591.575 1789.34 547.97 1763.09C518.652 1745.43 511.811 1737.57 511.811 1721.53C511.811 1711.88 514.795 1705.78 523.489 1697.66C529.911 1691.66 537.467 1686.76 540.288 1686.76C549.319 1686.76 573.481 1671.65 585.628 1658.4C594.493 1648.74 598.018 1640.62 599.898 1625.57C601.308 1614.57 601.324 1602.68 599.974 1599.16C597.833 1593.58 600.361 1592.78 619.547 1592.7C640.957 1592.65 663.617 1586.79 684.799 1575.84C695.204 1570.46 711.119 1547.83 711.119 1538.43C711.119 1535.66 713.659 1532.43 716.762 1531.24C719.864 1530.05 722.404 1526 722.404 1522.23C722.404 1518.47 725.791 1508.75 729.927 1500.64C735.766 1489.19 737.439 1478.47 737.439 1452.69C737.439 1434.42 739.111 1417.43 741.148 1414.93C743.184 1412.44 749.313 1404.83 754.761 1398.04C760.209 1391.24 769.394 1383.23 775.182 1380.24C778.885 1378.33 782.717 1377.38 786.723 1377.4H786.743ZM426.86 1695.39C430.05 1695.31 434.913 1696.83 444.127 1699.89C454.704 1703.41 470.584 1705.7 479.415 1704.98C495.233 1703.7 495.414 1703.82 491.847 1713.26C489.856 1718.53 489.396 1730.65 490.827 1740.19C496.207 1776.06 543.814 1807.35 594.587 1808.38C625.746 1809.01 639.6 1804.09 662.262 1784.32C683.77 1765.55 687.01 1764.62 693.98 1775.26C702.61 1788.43 729.397 1807.08 739.692 1807.08C750.679 1807.08 753.502 1811.77 749.149 1822.78C723.106 1888.64 699.975 1935.19 685.713 1950.48C679.23 1957.43 670.886 1966.52 667.161 1970.67C663.436 1974.82 653.981 1983.71 646.154 1990.41C638.326 1997.12 629.87 2002.59 627.357 2002.59C621.605 2002.59 596.894 1987.78 595.214 1983.35C594.524 1981.53 591.822 1980.04 589.21 1980.04C582.941 1980.04 553.221 1947.24 553.221 1940.32C553.221 1937.35 551.553 1934.92 549.513 1934.92C547.473 1934.92 543.299 1928.92 540.236 1921.59C537.173 1914.26 529.538 1903.13 523.267 1896.86C516.995 1890.59 511.866 1883.06 511.866 1880.12C511.866 1877.17 509.325 1874.76 506.223 1874.76C503.121 1874.76 500.581 1872.95 500.581 1870.74C500.581 1865.53 491.017 1855.96 485.811 1855.96C483.595 1855.96 481.784 1853.42 481.784 1850.32C481.784 1847.22 480.033 1844.68 477.895 1844.68C475.758 1844.68 469.231 1840.03 463.391 1834.34C457.551 1828.65 446.194 1817.81 438.144 1810.24C430.095 1802.68 418.496 1790.2 412.377 1782.51C388.773 1752.86 387.344 1742.03 404.588 1723.59C409.823 1717.99 414.15 1712.07 414.226 1710.42C414.291 1708.78 416.722 1704.31 419.624 1700.48C422.151 1697.14 423.668 1695.46 426.86 1695.39ZM1260.78 1748.72C1264.09 1750.09 1266.11 1776.97 1264.66 1803.31C1263.76 1819.64 1238.59 1871 1231.48 1871C1228.61 1871 1226.27 1874.26 1226.27 1878.25C1226.27 1882.23 1223.73 1888.03 1220.62 1891.14C1217.52 1894.24 1214.98 1898.45 1214.98 1900.5C1214.98 1902.54 1213.64 1904.77 1212.01 1905.46C1206.87 1907.62 1188.66 1933.51 1188.66 1938.64C1188.66 1944.56 1165.67 1973.86 1148.79 1989.43C1142.07 1995.64 1134.34 2002.78 1131.6 2005.31C1128.87 2007.84 1124.93 2011.7 1122.87 2013.89C1120.8 2016.09 1111.07 2023.07 1101.24 2029.4C1091.42 2035.73 1083.38 2043.23 1083.38 2046.07C1083.38 2048.99 1081.07 2050.34 1078.04 2049.18C1074.97 2048.01 1070.9 2050.47 1068.51 2054.94C1066.21 2059.24 1061.96 2062.75 1059.08 2062.75C1056.2 2062.75 1051.53 2065.08 1048.7 2067.91C1045.87 2070.74 1039.82 2074.23 1035.27 2075.67C1030.71 2077.12 1026.98 2079.89 1026.98 2081.81C1026.98 2083.74 1023.89 2085.32 1020.11 2085.32C1013.27 2085.32 977.363 2106.94 974.967 2112.49C974.278 2114.09 970.901 2115.52 967.455 2115.67C964.008 2115.82 956.753 2118.79 951.335 2122.26C945.916 2125.72 930.257 2135.04 916.547 2142.98C902.836 2150.91 891.629 2158.95 891.629 2160.84C891.629 2162.73 889.378 2164.28 886.635 2164.28C883.893 2164.28 876.711 2170.2 870.675 2177.44C864.64 2184.67 857.578 2190.6 854.981 2190.6C852.384 2190.6 850.263 2192.17 850.263 2194.09C850.263 2196.01 848.152 2199.88 845.567 2202.69C842.982 2205.51 839.043 2211.12 836.822 2215.18C821.669 2242.86 818.068 2249.09 816.229 2250.75C815.089 2251.79 811.157 2261.1 807.484 2271.44C803.81 2281.78 799.33 2293.63 797.528 2297.76C784.285 2328.15 777.41 2410.58 787.582 2417.05C790.853 2419.13 790.778 2419.9 787.283 2419.9C784.61 2419.96 782.587 2424.69 782.587 2430.92C782.587 2436.95 784.698 2442.6 787.283 2443.47C790.941 2444.7 790.83 2446.45 786.783 2451.36C783.014 2455.92 782.088 2464.78 783.425 2483.47C784.441 2497.67 783.844 2511.85 782.097 2514.97C779.237 2520.08 783.728 2555.61 789.099 2570.35C790.229 2573.46 791.709 2583.58 792.382 2592.85C794.462 2621.39 805.905 2669.75 811.689 2674.44C814.741 2676.89 816.078 2680.67 814.739 2682.84C811.93 2687.38 824.265 2724.52 828.584 2724.52C830.166 2724.52 831.464 2726.88 831.464 2729.77C831.464 2740.48 866.202 2803.99 878.695 2816.13C885.803 2823.03 891.627 2830.3 891.627 2832.29C891.627 2834.28 896.784 2839.72 903.092 2844.38C909.4 2849.04 916.129 2856.98 918.042 2862.01C919.955 2867.04 923.373 2871.16 925.64 2871.16C929.94 2871.16 940.505 2880.32 940.505 2884.05C940.505 2887.44 924.057 2886.57 895.505 2881.68C868.257 2877 863.46 2877.35 750.623 2891.92C727.875 2894.86 695.142 2899.02 677.879 2901.19C660.617 2903.35 643.372 2906.79 639.563 2908.83C634.919 2911.31 631.842 2911.23 630.212 2908.59C628.666 2906.09 607.32 2904.9 571.558 2905.31C540.635 2905.66 514.267 2904.88 512.968 2903.59C511.669 2902.29 513.43 2901.23 516.878 2901.23C520.325 2901.23 523.137 2899.9 523.137 2898.28C523.137 2896.65 527.997 2892.46 533.933 2888.96C539.869 2885.45 546.99 2877.12 549.754 2870.45C552.519 2863.77 557.809 2855.27 561.517 2851.56C565.224 2847.86 568.264 2841.44 568.264 2837.3C568.264 2833.17 569.958 2829.79 572.026 2829.79C574.094 2829.79 575.787 2825.74 575.787 2820.79C575.787 2815.84 578.11 2810.9 580.951 2809.81C583.792 2808.71 587.245 2801.77 588.634 2794.37C590.023 2786.96 592.779 2780.9 594.754 2780.9C596.728 2780.9 598.346 2776.24 598.346 2770.54C598.346 2758.15 604.535 2735.3 608.706 2732.29C614.088 2728.41 624.666 2709.84 624.666 2704.27C624.666 2701.27 626.3 2698.26 628.3 2697.57C630.298 2696.88 636.171 2684.59 641.359 2670.27C646.545 2655.95 652.3 2643.26 654.141 2642.07C655.982 2640.88 658.683 2630.18 660.145 2618.29C661.608 2606.4 664.022 2596.66 665.511 2596.66C669.237 2596.66 666.254 2442.82 662.376 2434.98C661.865 2433.95 661.091 2415.73 660.644 2394.49C660.155 2370.91 658.108 2354.13 655.406 2351.43C652.971 2349 650.986 2343.36 650.986 2338.92C650.986 2334.47 646.989 2323.33 642.113 2314.16C632.286 2295.67 627.134 2264.55 628.13 2229.74C628.619 2212.61 627.247 2205.57 622.679 2201.78C618.244 2198.1 617.209 2193.3 618.907 2184.25C620.193 2177.39 619.813 2171.78 618.067 2171.78C614.596 2171.78 607.904 2154.36 603.988 2135.12C602.62 2128.4 599.976 2122.9 598.112 2122.9C596.248 2122.9 593.66 2118.68 592.363 2113.51C591.065 2108.34 588.501 2104.11 586.657 2104.11C584.814 2104.11 583.3 2101.05 583.3 2097.31C583.3 2093.57 580.821 2087.22 577.785 2083.21C574.749 2079.19 572.219 2073.21 572.143 2069.9C572.077 2066.6 568.639 2060 564.503 2055.23C557.234 2046.84 555.292 2040.28 556.831 2029.3C557.234 2026.42 555.314 2022.68 552.57 2020.98C549.827 2019.29 547.442 2014.88 547.268 2011.19C546.784 2000.87 538.832 1983.78 534.517 1983.78C532.397 1983.78 530.639 1981.67 530.639 1979.08C530.639 1976.5 528.252 1969.85 525.358 1964.3C520.819 1955.65 520.822 1954.5 525.358 1956.24C528.264 1957.36 530.639 1960.44 530.639 1963.1C530.639 1965.76 533.179 1968.92 536.281 1970.11C539.383 1971.3 541.923 1974.03 541.923 1976.18C541.923 1981.59 561.043 2002.58 566.044 2002.65C568.287 2002.71 574.079 2006.9 578.922 2012C589.218 2022.86 614.01 2030.51 627.737 2027.06C648.808 2021.77 679.072 1993.31 708.652 1950.97C726.1 1925.99 767.196 1841.37 767.582 1829.62C767.854 1821.28 780.392 1807.71 791.83 1803.36C811.277 1795.96 811.506 1794.53 783.435 1855.94C773.964 1876.67 768.233 1895.82 767.412 1909.53C764.386 1960.07 769.806 1996.76 781.332 2003.72C784.072 2005.37 786.315 2010.92 786.315 2016.05C786.315 2021.18 788.856 2026.36 791.957 2027.55C795.06 2028.74 797.6 2031.95 797.6 2034.68C797.6 2041.4 823.986 2062.74 832.293 2062.74C835.957 2062.74 838.966 2064.21 838.966 2065.99C838.966 2067.78 849.222 2071.42 861.768 2074.08C888.144 2079.68 963.48 2074.59 965.996 2067.05C966.784 2064.68 972.11 2062.74 977.833 2062.74C990.458 2062.74 1011.92 2055.65 1011.92 2051.47C1011.92 2049.8 1017 2046.67 1023.21 2044.51C1029.41 2042.35 1034.48 2038.91 1034.48 2036.88C1034.48 2034.84 1037.7 2032.15 1041.65 2030.9C1058.66 2025.5 1128.48 1948.48 1128.48 1935.12C1128.48 1933.08 1133.14 1926.6 1138.82 1920.74C1144.51 1914.87 1154.23 1902.62 1160.44 1893.5C1169.82 1879.7 1187.77 1859.26 1221.91 1823.46C1224.7 1820.54 1226.01 1815.66 1224.84 1812.61C1223.67 1809.56 1224.78 1807.07 1227.35 1807.07C1229.9 1807.07 1236.17 1800.3 1241.28 1792.03C1246.39 1783.76 1251.86 1776.98 1253.44 1776.98C1255.02 1776.98 1256.32 1771.17 1256.32 1764.05C1256.32 1756.94 1258.02 1750.06 1260.08 1748.78C1260.32 1748.64 1260.53 1748.61 1260.75 1748.71L1260.78 1748.72ZM867.254 1754.85C870.811 1754.92 876.573 1760.18 891.491 1773.99C918.822 1799.28 934.351 1808.59 944.705 1805.89C948.983 1804.77 951.782 1805.98 951.782 1808.97C951.782 1820.13 1019.45 1820.13 1042.75 1808.97C1051.68 1804.68 1053.66 1804.99 1059.66 1811.63C1063.41 1815.77 1073.14 1822.57 1081.3 1826.73C1102.16 1837.38 1139.33 1834.59 1166.58 1820.35C1192.44 1806.83 1211.23 1791.63 1211.23 1784.23C1211.23 1780.97 1215.15 1774.63 1219.93 1770.13C1230.31 1760.38 1237.43 1759.15 1229.15 1768.54C1225.95 1772.15 1222.26 1780.21 1220.94 1786.43C1219.54 1793.05 1213.91 1800.86 1207.37 1805.24C1201.23 1809.35 1196.19 1814.73 1196.19 1817.2C1196.19 1819.67 1191.11 1824.69 1184.9 1828.36C1178.69 1832.02 1172.66 1838.04 1171.49 1841.73C1170.32 1845.41 1167.93 1848.44 1166.18 1848.44C1162.06 1848.44 1128.1 1891.52 1118.78 1908.59C1114.82 1915.83 1108.62 1923.97 1105 1926.67C1101.39 1929.37 1098.43 1934.02 1098.43 1937.01C1098.43 1939.99 1097.1 1942.44 1095.47 1942.44C1093.85 1942.44 1081.8 1952.7 1068.71 1965.24C1055.61 1977.78 1037.9 1992.57 1029.36 1998.11C1020.82 2003.64 1012.98 2009.12 1011.94 2010.28C1005.07 2018 954.377 2036.43 940.03 2036.43C934.085 2036.43 929.223 2037.8 929.223 2039.47C929.223 2041.14 920.766 2042.51 910.426 2042.51C900.086 2042.51 891.629 2040.97 891.629 2039.08C891.629 2037.19 884.855 2036.29 876.583 2037.08C868.311 2037.87 861.548 2037.28 861.548 2035.76C861.548 2034.25 855.581 2031.89 848.287 2030.52C840.992 2029.16 833.317 2024.86 831.233 2020.96C829.148 2017.07 824.964 2013.87 821.935 2013.87C818.906 2013.87 816.42 2011.55 816.42 2008.7C816.42 2005.85 813.891 2001.41 810.789 1998.84C807.687 1996.27 805.146 1990.13 805.146 1985.22C805.146 1980.3 803.453 1976.28 801.385 1976.28C799.317 1976.28 797.623 1973.23 797.623 1969.51C797.623 1965.79 795.68 1960.8 793.309 1958.43C787.119 1952.24 784.006 1897.32 789.845 1897.32C792.315 1897.32 793.984 1894.35 793.543 1890.73C793.102 1887.11 795.53 1877.86 798.941 1870.17C802.353 1862.48 805.146 1852.98 805.146 1849.04C805.146 1840.81 834.379 1791 847.426 1776.99C852.241 1771.82 858.678 1763.99 861.728 1759.58C863.778 1756.62 865.119 1754.8 867.254 1754.84V1754.85ZM440.237 1854.09C440.832 1854.15 441.59 1854.32 442.501 1854.67C445.497 1855.82 447.941 1858.27 447.941 1860.12C447.941 1865.53 441.425 1863.97 439.143 1858.03C438.095 1855.3 438.453 1853.99 440.237 1854.09ZM452.17 1867.6C454.283 1867.92 463.404 1875.85 474.261 1886.95C486.669 1899.63 496.827 1910.96 496.83 1912.12C496.83 1913.29 501.909 1920.16 508.104 1927.4C514.298 1934.64 519.374 1942.67 519.378 1945.25C519.382 1947.84 518.954 1949.96 518.422 1949.96C515.312 1949.96 493.069 1922.6 493.069 1918.77C493.069 1916.24 489.681 1912.05 485.546 1909.47C481.41 1906.88 478.023 1902.98 478.023 1900.8C478.023 1898.61 472.106 1891.23 464.868 1884.4C457.63 1877.57 451.703 1870.17 451.703 1867.94C451.703 1867.66 451.866 1867.55 452.17 1867.6Z" fill="black"/>
</g>
</svg>
